<?xml version="1.0" encoding="UTF-8"?>
<svg id="Capa_1" data-name="Capa 1" xmlns="http://www.w3.org/2000/svg" viewBox="0 0 24 24">
  <defs>
    <style>
      .cls-1 {
        fill: #fff;
      }

      .cls-2 {
        fill: #2f56a2;
      }
    </style>
  </defs>
  <rect class="cls-2" x="1" y="1" width="21.99" height="21.99" rx="11" ry="11"/>
  <g>
    <path class="cls-1" d="M11.79,16.46v.53c.44.06.98-.02,1.2.45.01.02.07.16.07.17v.97h-5.52v-.97s.06-.17.07-.19c.23-.44.78-.38,1.2-.43v-.53h-2.51c-.37,0-.88-.54-.89-.92v-4.91c.05-.52.47-.94.99-.97h7.8c.5.05.9.44.97.94v4.91c0,.39-.51.94-.89.94h-2.51ZM14.34,15.98c.25-.06.41-.32.43-.57v-4.72c-.04-.34-.28-.57-.62-.6h-7.64c-.36.01-.62.26-.65.62v4.72c0,.24.31.6.54.6h3.78l-.18-.07c-.44-.25-.44-.87,0-1.13l.18-.07h-3.57c-.13,0-.35-.24-.33-.38.07-1.11-.1-2.35,0-3.45.02-.19.12-.33.3-.39l7.36-.02c.22,0,.39.17.41.39-.07,1.11.1,2.35,0,3.45-.01.16-.16.41-.33.41h-3.57l.18.07c.44.25.44.87,0,1.13l-.18.07h2.63v-.85h1.27v.8ZM13.91,10.94h-7.22v3.4h7.22v-3.4ZM10.29,15.19c-.27.01-.24.42.02.41s.24-.42-.02-.41ZM13.91,15.61h-.42v.42h.42v-.42ZM11.36,16.46h-2.12v.68c0,.09.14.16.22.17.38.04,1.26.04,1.65,0,.09,0,.25-.06.25-.17v-.68ZM12.64,18.16v-.44c0-.31-.69-.25-.89-.31-.16.12-.25.29-.48.32-.6-.05-1.32.07-1.91,0-.24-.03-.34-.19-.5-.32-.19.06-.68,0-.81.15-.01.02-.08.14-.08.15v.44h4.67Z"/>
    <path class="cls-1" d="M8.76,5.42l.08.26.32-.09.76.76-.09.32.27.1v1.13l-.27.1.09.32-.76.76-.32-.09-.1.27h-1.13s-.1-.27-.1-.27l-.26.1-.82-.79.09-.29-.27-.1v-1.13l.27-.1-.09-.29.82-.79.26.1.1-.27h1.15ZM7.93,5.85c-.06.02-.07.21-.15.27-.02.02-.18.08-.2.08-.06,0-.18-.11-.26-.09-.02,0-.34.32-.35.34-.04.1.09.22.08.29-.03.23-.2.23-.36.33,0,.1-.04.48.02.53.05.04.19.04.25.12.02.02.08.18.08.2,0,.06-.11.18-.09.26,0,.02.32.34.34.35.1.04.22-.09.29-.08.23.03.23.2.33.36.1,0,.48.04.53-.02.04-.05.04-.19.12-.25.02-.02.18-.08.2-.08.06,0,.19.11.26.09.02,0,.34-.32.35-.34.04-.1-.09-.22-.08-.29.03-.22.2-.23.36-.33,0-.1.04-.48-.02-.53-.05-.04-.19-.04-.25-.12-.02-.02-.08-.18-.08-.2,0-.06.11-.18.09-.26,0-.02-.32-.34-.34-.35-.09-.04-.21.09-.29.08-.23-.03-.23-.2-.33-.35h-.5Z"/>
    <path class="cls-1" d="M18.58,8.82v2.55h-2.97v-1.7h.85v-.42h.85v-.42h1.27ZM18.16,9.24h-.42v1.7h.42v-1.7ZM17.31,9.67h-.42v1.27h.42v-1.27ZM16.46,10.09h-.42v.85h.42v-.85Z"/>
    <polygon class="cls-1" points="11.26 7.12 17.31 7.12 17.31 8.39 16.88 8.39 16.88 7.54 11.26 7.54 11.73 8.03 11.43 8.34 10.44 7.34 11.43 6.32 11.73 6.63 11.26 7.12"/>
    <polygon class="cls-1" points="17.31 12.53 17.31 14.76 15.61 14.76 15.61 14.34 16.88 14.34 16.88 12.53 16.39 13.01 16.09 12.7 17.09 11.71 18.1 12.7 17.8 13.01 17.31 12.53"/>
    <path class="cls-1" d="M9.67,11.36v2.55h-2.55v-2.55h2.55ZM9.24,11.79h-1.7v1.7h1.7v-1.7Z"/>
    <rect class="cls-1" x="10.09" y="11.36" width="3.4" height=".42"/>
    <rect class="cls-1" x="10.09" y="13.06" width="3.4" height=".42"/>
    <rect class="cls-1" x="10.94" y="12.21" width="2.55" height=".42"/>
    <rect class="cls-1" x="10.09" y="12.21" width=".42" height=".42"/>
    <path class="cls-1" d="M7.99,6.28c1.61-.23,1.67,2.25.07,2.12-1.22-.11-1.25-1.95-.07-2.12ZM8.09,6.7c-.79.11-.68,1.31.12,1.27.85-.05.74-1.38-.12-1.27Z"/>
  </g>
</svg>