<?xml version="1.0" encoding="UTF-8"?>
<svg id="Capa_1" data-name="Capa 1" xmlns="http://www.w3.org/2000/svg" viewBox="0 0 24 24">
  <defs>
    <style>
      .cls-1 {
        fill: #fff;
      }

      .cls-2 {
        fill: #2f56a2;
      }
    </style>
  </defs>
  <rect class="cls-2" x=".99" y="1" width="21.99" height="21.99" rx="11" ry="11"/>
  <path class="cls-1" d="M9.53,6.27v1c0,.19-.38.89-.38,1.09v2.82h.38v2.64h.38v-2.77s.07-.21.1-.26c.17-.3.51-.41.85-.37-.08-.54.29-1.08.84-1.13.32-.03,1.02-.03,1.34,0,.55.06.91.6.84,1.13.47-.06.9.2.94.7v3.32s.45.39.45.39l.31-5.17h1.51l.38,6.42h.38v1.89H6.13v-6.8h.38v-2.82c0-.19-.38-.89-.38-1.09v-1h3.4ZM9.15,6.64h-2.64v.38h2.64v-.38ZM9.08,7.4h-2.5l.27.75h1.97s.26-.75.26-.75ZM8.77,8.53h-1.89v2.64h1.89v-2.64ZM12.17,11.05v2.77h.38v-2.77s.07-.21.1-.26c.17-.3.51-.41.85-.37.05-.35-.13-.71-.51-.75-.23-.03-1.14-.03-1.34.02-.33.09-.45.42-.41.73.41-.07.89.19.94.63ZM16.7,10.04h-.76l-.31,5.09.04.08.64.59v.28h.74l-.35-6.04ZM11.8,11.55v-.44s-.08-.17-.11-.2c-.04-.05-.14-.09-.2-.11-.15-.03-.77-.03-.92,0-.09.02-.17.08-.22.16-.01.02-.07.14-.07.15v.44h1.51ZM14.44,11.55v-.44s-.08-.17-.11-.2c-.04-.05-.14-.09-.2-.11-.15-.03-.77-.03-.92,0-.09.02-.17.08-.22.16-.01.02-.07.14-.07.15v.44h1.51ZM9.15,11.55h-2.64v6.04h.38v-1.78l2.27-1.88v-2.38ZM11.8,11.93h-1.51v.76h1.51v-.76ZM14.44,11.93h-1.51v.76h1.51v-.76ZM11.8,13.06h-1.51v.76h1.51v-.76ZM14.44,13.06h-1.51v.76h1.22l.29.26v-1.01ZM13.57,14.2h-4.14l-1.81,1.51h4.28l1.66-1.51ZM15.95,17.59v-1.62l-1.9-1.71-1.88,1.71v1.62h.76v-1.89h2.27v1.89h.76ZM11.8,16.08h-4.53v1.51h4.53v-1.51ZM14.82,16.08h-1.51v1.51h1.51v-1.51ZM17.46,16.46h-1.13v1.13h1.13v-1.13Z"/>
  <path class="cls-1" d="M14.44,6.64v.38c-.37-.08-.74.27-.48.61.03.05.19.14.23.14h.81v.38h-1.36s-.09.05-.1.05c-.11.11-.04.3.12.32.58.08,1.35-.05,1.96,0,.38.03.56.41.51.76h-.38c0-.15.02-.33-.16-.37h-2.02c-.5-.11-.64-.77-.2-1.05.07-.05.15-.04.21-.1-.32-.61.2-1.22.85-1.12Z"/>
  <path class="cls-1" d="M15.57,6.64c.49-.07.94.24.94.76.36.02.76-.08,1.06.18.39.34.34,1-.13,1.24-.29.15-.63-.02-.56.47h-.38c-.05-.35.1-.68.46-.75.05-.01.11,0,.18-.01.29-.06.41-.43.19-.64s-.91-.06-1.2-.11v-.44s-.07-.15-.08-.18c-.11-.14-.32-.15-.48-.14v-.38Z"/>
  <rect class="cls-1" x="14.82" y="6.64" width=".38" height=".38"/>
  <rect class="cls-1" x="6.86" y="12.69" width=".38" height=".38"/>
  <rect class="cls-1" x="7.61" y="12.69" width=".38" height=".38"/>
  <rect class="cls-1" x="8.37" y="12.69" width=".38" height=".38"/>
  <rect class="cls-1" x="6.86" y="13.44" width=".38" height=".38"/>
  <rect class="cls-1" x="7.61" y="13.44" width=".38" height=".38"/>
  <rect class="cls-1" x="8.37" y="13.44" width=".38" height=".38"/>
  <rect class="cls-1" x="6.86" y="14.2" width=".38" height=".38"/>
  <rect class="cls-1" x="7.61" y="14.2" width=".38" height=".38"/>
  <rect class="cls-1" x="8.4" y="11.93" width=".38" height=".38"/>
  <rect class="cls-1" x="7.64" y="11.93" width=".38" height=".38"/>
  <rect class="cls-1" x="6.89" y="11.93" width=".38" height=".38"/>
  <path class="cls-1" d="M8.4,8.91v1.89h-1.13v-1.89h1.13ZM8.02,9.29h-.38v1.13h.38v-1.13Z"/>
</svg>