<?xml version="1.0" encoding="UTF-8"?>
<svg id="Capa_1" data-name="Capa 1" xmlns="http://www.w3.org/2000/svg" viewBox="0 0 24 24">
  <defs>
    <style>
      .cls-1 {
        fill: #fff;
      }

      .cls-2 {
        fill: #2f56a2;
      }
    </style>
  </defs>
  <rect class="cls-2" x=".99" y="1" width="21.99" height="21.99" rx="11" ry="11"/>
  <g>
    <path class="cls-1" d="M19.23,17.96H4.77v-5.56h.42v3.39h3.42v-4.21h2.97v-.85h-6.38v1.27h-.42v-1.57c0-.15.12-.54.18-.69.25-.62.86-1.23,1.51-1.41v-.99h-.8l-.04-.04v-1.26h3.42v.45h-2.99v.4h4.69v-.4h-1.27v-.45h1.69v1.3h-.85v.95c.47.21.85.45,1.17.86.39.51.52,1.01.55,1.65.01.26-.01.52,0,.78h7.2s0,6.38,0,6.38ZM9.88,7.34h-2.99v1.3c-.79.1-1.47.92-1.64,1.67h6.27c-.1-.83-.84-1.51-1.64-1.67v-1.3ZM18.81,12h-9.77v2.54h6.78v.42h-6.78v2.54h9.77v-2.54h-2.57v-.42h2.57v-2.54ZM8.61,16.24h-3.42v1.27h3.42v-1.27Z"/>
    <path class="cls-1" d="M7.76,12.85h-2.12v-1.3h2.08l.04.04v1.26ZM7.34,12h-1.27v.4h1.27v-.4Z"/>
    <path class="cls-1" d="M5.65,13.69v-.45h1.23c.07.1.07.35,0,.45h-1.23Z"/>
    <path class="cls-1" d="M14.79,12.43c1.25-.2,1.35,1.63.21,1.69-1.06.05-1.19-1.53-.21-1.69ZM14.87,12.85c-.49.08-.42.92.18.81.49-.09.37-.9-.18-.81Z"/>
    <path class="cls-1" d="M16.91,12.43c.96-.15,1.4,1.06.62,1.55-.7.44-1.57-.32-1.22-1.08.1-.21.37-.44.6-.47ZM16.99,12.85c-.49.08-.42.92.18.81.49-.09.37-.9-.18-.81Z"/>
    <path class="cls-1" d="M10.55,15.4c1.25-.2,1.35,1.63.21,1.69-1.06.05-1.19-1.53-.21-1.69ZM10.64,15.82c-.43.07-.43.74,0,.81.68.11.63-.92,0-.81Z"/>
    <path class="cls-1" d="M12.67,15.4c1.25-.2,1.35,1.63.21,1.69-1.06.05-1.19-1.53-.21-1.69ZM12.76,15.82c-.42.07-.44.74,0,.81.68.11.64-.92,0-.81Z"/>
    <path class="cls-1" d="M14.79,15.4c1.25-.2,1.35,1.63.21,1.69-1.06.05-1.19-1.53-.21-1.69ZM14.87,15.82c-.42.07-.44.74,0,.81.68.11.64-.92,0-.81Z"/>
    <path class="cls-1" d="M12.67,12.43c.9-.14,1.39.94.7,1.49-.63.5-1.49-.04-1.36-.83.05-.3.37-.62.66-.66ZM12.76,12.85c-.49.08-.42.92.18.81.49-.09.37-.9-.18-.81Z"/>
    <path class="cls-1" d="M10.55,12.43c.9-.14,1.39.94.7,1.49s-1.67-.21-1.3-1.02c.1-.21.37-.44.6-.47ZM10.64,12.85c-.5.09-.42.92.18.81.49-.09.37-.9-.18-.81Z"/>
    <path class="cls-1" d="M16.91,15.4c1.25-.2,1.35,1.63.21,1.69-1.06.05-1.19-1.53-.21-1.69ZM16.99,15.82c-.43.09-.43.74,0,.81.7.11.62-.94,0-.81Z"/>
    <path class="cls-1" d="M7.76,9.43v.41c-.05.07-.41.06-.44.02,0-.13-.05-.32.03-.43h.41Z"/>
    <path class="cls-1" d="M6.89,9.43v.45c-.13-.02-.32.05-.42-.04v-.41h.42Z"/>
  </g>
</svg>