<?xml version="1.0" encoding="UTF-8"?>
<svg id="Capa_1" xmlns="http://www.w3.org/2000/svg" version="1.1" viewBox="0 0 250 250">
  <!-- Generator: Adobe Illustrator 30.1.0, SVG Export Plug-In . SVG Version: 2.1.1 Build 136)  -->
  <defs>
    <style>
      .st0 {
        stroke-linecap: round;
      }

      .st0, .st1 {
        fill: none;
        stroke: #fff;
        stroke-width: 4px;
      }

      .st1 {
        stroke-miterlimit: 10;
      }
    </style>
  </defs>
  <path class="st1" d="M124.5,243.25c-47.68,0-90.34-28.7-108.69-73.1-12.06-29.18-12.04-61.3.07-90.46C34.26,35.38,76.9,6.75,124.51,6.75c66.57,0,118.71,51.94,118.71,118.25,0,34.14-13.64,65.25-38.41,87.59-21.92,19.77-50.44,30.66-80.3,30.66h-.02Z"/>
  <path class="st0" d="M71.42,136.77v53.1M71.42,189.87h6.4c3.15,0,5.7-2.55,5.7-5.7v-47.4M71.42,189.87h-6.11c-3.15,0-5.7-2.55-5.7-5.7v-47.4M83.52,136.77h4.27c2.12,0,3.9-1.58,4.15-3.68l.38-3.17M83.52,136.77l4.87-41.05M59.61,136.77h-3.37c-3.58,0-6.55-2.75-6.82-6.31l-2.97-38.29c-.43-5.52,3.94-10.24,9.47-10.24h31.47c5.7,0,10.12,4.98,9.44,10.64l-.37,3.07M59.61,136.77l-4.77-41.05"/>
  <path class="st0" d="M174.04,136.77v53.1M174.04,189.87h6.4c3.15,0,5.7-2.55,5.7-5.7v-47.4M174.04,189.87h-6.12c-3.15,0-5.7-2.55-5.7-5.7v-47.4M186.14,136.77h4.27c2.12,0,3.9-1.58,4.15-3.68l4.88-40.52c.68-5.66-3.73-10.64-9.44-10.64h-31.47c-5.54,0-9.9,4.72-9.47,10.24l.27,3.47M186.14,136.77l4.87-41.05M162.22,136.77h-3.37c-3.57,0-6.54-2.75-6.82-6.31l-.04-.54M162.22,136.77l-4.77-41.05"/>
  <path class="st0" d="M121.59,156.54v53.1M121.59,209.63h6.4c3.15,0,5.7-2.55,5.7-5.7v-47.39M121.59,209.63h-6.12c-3.15,0-5.7-2.55-5.7-5.7v-47.39M133.69,156.54h4.27c2.12,0,3.9-1.58,4.15-3.68l4.88-40.52c.68-5.66-3.73-10.63-9.43-10.63h-31.47c-5.53,0-9.9,4.72-9.47,10.23l2.96,38.29c.28,3.56,3.25,6.31,6.82,6.31h3.37M133.69,156.54l4.87-41.05M109.77,156.54l-4.77-41.05"/>
  <ellipse class="st0" cx="71.88" cy="68.25" rx="8.74" ry="9.12"/>
  <ellipse class="st0" cx="174.5" cy="68.25" rx="8.74" ry="9.12"/>
  <ellipse class="st0" cx="122.05" cy="81.93" rx="9.88" ry="10.26"/>
</svg>