<?xml version="1.0" encoding="UTF-8"?>
<svg id="Capa_1" xmlns="http://www.w3.org/2000/svg" version="1.1" viewBox="0 0 250 250">
  <!-- Generator: Adobe Illustrator 30.1.0, SVG Export Plug-In . SVG Version: 2.1.1 Build 136)  -->
  <defs>
    <style>
      .st0 {
        stroke-linecap: round;
      }

      .st0, .st1 {
        fill: none;
        stroke: #fff;
        stroke-width: 4px;
      }

      .st1 {
        stroke-miterlimit: 10;
      }
    </style>
  </defs>
  <path class="st1" d="M125.48,243.25c-66.57,0-118.71-51.94-118.71-118.25S58.92,6.75,125.49,6.75c47.68,0,90.35,28.69,108.71,73.09,12.06,29.17,12.04,61.29-.06,90.46-18.39,44.31-61.03,72.94-108.64,72.94h0Z"/>
  <path class="st0" d="M84.95,189.12h-24.53M84.95,189.12h4.38c2.17,0,4-1.62,4.26-3.78l.4-3.26M84.95,189.12l5-42.11M60.42,189.12h-3.45c-3.67,0-6.71-2.82-7-6.48l-3.04-39.27c-.44-5.66,4.04-10.5,9.72-10.5h32.28c5.85,0,10.38,5.1,9.68,10.91l-.38,3.15M60.42,189.12l-4.89-42.11"/>
  <path class="st0" d="M190.21,189.12h-24.54M190.21,189.12h4.38c2.17,0,4-1.62,4.26-3.78l5-41.56c.7-5.8-3.83-10.91-9.67-10.91h-32.28c-5.68,0-10.15,4.84-9.71,10.5l.27,3.56M190.21,189.12l4.99-42.11M165.68,189.12h-3.45c-3.66,0-6.71-2.82-7-6.48l-.04-.56M165.68,189.12l-4.89-42.11"/>
  <path class="st0" d="M136.41,209.39h-24.54M136.41,209.39h4.38c2.17,0,4-1.62,4.26-3.77l5-41.56c.7-5.8-3.83-10.91-9.67-10.91h-32.28c-5.68,0-10.16,4.84-9.72,10.5l3.04,39.27c.28,3.65,3.33,6.48,6.99,6.48h3.45M136.41,209.39l4.99-42.1M111.88,209.39l-4.89-42.1"/>
  <ellipse class="st0" cx="73.01" cy="118.83" rx="8.97" ry="9.36"/>
  <ellipse class="st0" cx="178.27" cy="118.83" rx="8.97" ry="9.36"/>
  <ellipse class="st0" cx="124.47" cy="132.87" rx="10.14" ry="10.53"/>
  <path class="st0" d="M205.17,66.59c0-3.87-3.14-7.02-7.02-7.02h-42.49c-3.87,0-7.02,3.14-7.02,7.02v19.88c0,3.87,3.14,7.02,7.02,7.02h24.47c2.44,0,4.71,1.27,5.98,3.36l4.22,6.89c.3.49,1.02.5,1.33,0l4.94-7.89c.8-1.46,2.34-2.36,4-2.36,2.53,0,4.57-2.05,4.57-4.57v-22.33Z"/>
  <path class="st0" d="M46.11,64.64c0-3.87,3.14-7.02,7.02-7.02h42.49c3.87,0,7.02,3.14,7.02,7.02v19.88c0,3.87-3.14,7.02-7.02,7.02h-24.46c-2.44,0-4.71,1.27-5.99,3.36l-4.22,6.89c-.3.5-1.01.5-1.32,0l-4.94-7.89c-.81-1.46-2.34-2.36-4.01-2.36-2.53,0-4.57-2.05-4.57-4.57v-22.33Z"/>
  <path class="st0" d="M143.58,91.55c0-2.81-2.28-5.08-5.08-5.08h-30.77c-2.81,0-5.08,2.27-5.08,5.08v14.39c0,2.81,2.28,5.08,5.08,5.08h17.71c1.77,0,3.41.92,4.33,2.43l2.87,4.69c.3.5,1.02.5,1.33,0l3.4-5.42c.58-1.05,1.69-1.71,2.9-1.71,1.83,0,3.31-1.48,3.31-3.31v-16.16Z"/>
</svg>