<?xml version="1.0" encoding="UTF-8"?>
<svg id="Capa_1" xmlns="http://www.w3.org/2000/svg" version="1.1" viewBox="0 0 250 250">
  <!-- Generator: Adobe Illustrator 30.1.0, SVG Export Plug-In . SVG Version: 2.1.1 Build 136)  -->
  <defs>
    <style>
      .st0 {
        stroke-linecap: round;
      }

      .st0, .st1 {
        fill: none;
        stroke: #fff;
        stroke-width: 4px;
      }

      .st1 {
        stroke-miterlimit: 10;
      }
    </style>
  </defs>
  <path class="st1" d="M125,243.25c-57.16,0-104.85-39.16-115.98-95.22C-2.11,91.96,27,37.56,79.83,15.72c14.39-5.95,29.59-8.97,45.17-8.97s30.89,3.04,45.34,9.04c52.75,21.89,81.8,76.3,70.63,132.32-11.16,56.02-58.85,95.14-115.97,95.14Z"/>
  <path class="st0" d="M90.33,139.35v66.4M90.33,205.75h8.77c3.53,0,6.39-2.86,6.39-6.39v-55.33c0-2.59,2.1-4.68,4.68-4.68h2.61c2.59,0,4.68-2.1,4.68-4.68v-18.97M90.33,205.75h-8.41c-3.53,0-6.39-2.86-6.39-6.39v-60.02M75.53,139.35h-5.05c-4,0-7.33-3.08-7.64-7.07l-3.88-50.04c-.48-6.19,4.41-11.47,10.61-11.47h37.25c5.88,0,10.64,4.77,10.64,10.65v21.52c0,1.18-.95,2.13-2.13,2.13h-20.23M75.53,139.35l-5.97-51.33M95.11,105.06l7.67-7.68M95.11,105.06l7.67,7.68"/>
  <path class="st0" d="M158.44,139.35v66.4M158.44,205.75h-8.77c-3.53,0-6.39-2.86-6.39-6.39v-55.33c0-2.59-2.1-4.68-4.68-4.68h-2.61c-2.59,0-4.69-2.1-4.69-4.68v-19.19c0-1.18.95-2.13,2.13-2.13h18.37M158.44,205.75h8.41c3.53,0,6.39-2.86,6.39-6.39v-60.02M173.24,139.35h5.05c4,0,7.33-3.08,7.64-7.07l3.88-50.04c.48-6.19-4.41-11.47-10.61-11.47h-37.25c-5.88,0-10.65,4.77-10.65,10.65v19.37M173.24,139.35l5.97-51.33M151.8,113.35l-7.51-7.51M151.8,113.35l-7.51,7.51"/>
  <ellipse class="st0" cx="87.87" cy="52.03" rx="10.65" ry="11.07"/>
  <ellipse class="st0" cx="160.9" cy="52.03" rx="10.65" ry="11.07"/>
</svg>