<?xml version="1.0" encoding="UTF-8"?>
<svg id="Capa_1" xmlns="http://www.w3.org/2000/svg" version="1.1" viewBox="0 0 250 250">
  <!-- Generator: Adobe Illustrator 30.1.0, SVG Export Plug-In . SVG Version: 2.1.1 Build 136)  -->
  <defs>
    <style>
      .st0 {
        stroke-linecap: round;
      }

      .st0, .st1 {
        fill: none;
        stroke: #fff;
        stroke-width: 4px;
      }

      .st1 {
        stroke-miterlimit: 10;
      }
    </style>
  </defs>
  <path class="st1" d="M125.47,243.25c-39.81,0-76.87-19.91-99.13-53.27C4.69,157.57.85,116.37,16.04,79.76c12.07-29.1,34.76-51.75,63.88-63.79,14.79-6.12,30.18-9.22,45.75-9.22,47.43,0,90.03,28.87,108.54,73.55,18.2,43.93,8.06,94.21-25.82,128.09-22.48,22.48-51.93,34.86-82.93,34.86Z"/>
  <path class="st0" d="M109.66,174l16.62,19c.33.38.91.38,1.25,0l66.61-75.86c15.94-18.22,13.88-45.73-4.62-61.45-18.13-15.4-48.17-15.43-61.82,14.2-.31.67-1.29.67-1.6,0-13.63-29.63-43.43-29.6-61.56-14.2-18.5,15.71-20.57,43.22-4.62,61.45l14.76,16.87"/>
  <path class="st0" d="M80.93,63.22c5.12-2.94,11.13-3.86,17-1.63,5.96,2.26,10.43,6.72,12.84,12.1"/>
  <path class="st0" d="M153.82,63.22c5.12-2.94,11.13-3.86,17-1.63,5.96,2.26,10.43,6.72,12.85,12.1"/>
  <path class="st0" d="M77.28,199.92l7.37-7.38c1.92-1.92,1.95-5.01.06-6.96l-23.03-23.83c-1.93-2-5.12-2.02-7.09-.06l-7.48,7.49"/>
  <path class="st0" d="M82.72,182.53l3.15-3.17c1.22-1.23,3.21-1.23,4.43,0h0c1.22,1.23,3.21,1.23,4.43,0l19.46-19.6"/>
  <path class="st0" d="M64.51,163.9l2.97-3.01c1.26-1.28,1.26-3.35,0-4.63h0c-1.27-1.28-1.27-3.34,0-4.63l18.97-19.2"/>
  <path class="st0" d="M91.42,170.52l22.77-23.19"/>
  <path class="st0" d="M77.34,154.79l23.6-23.19"/>
  <path class="st0" d="M84.8,161l25.67-25.67"/>
</svg>