<?xml version="1.0" encoding="UTF-8"?>
<svg id="Capa_1" xmlns="http://www.w3.org/2000/svg" version="1.1" viewBox="0 0 250 250">
  <!-- Generator: Adobe Illustrator 30.1.0, SVG Export Plug-In . SVG Version: 2.1.1 Build 136)  -->
  <defs>
    <style>
      .st0 {
        stroke-linecap: round;
      }

      .st0, .st1 {
        fill: none;
        stroke: #fff;
        stroke-width: 4px;
      }

      .st1 {
        stroke-miterlimit: 10;
      }
    </style>
  </defs>
  <path class="st1" d="M124.32,243.25c-47.43,0-90.03-28.87-108.54-73.56C-2.4,125.76,7.73,75.49,41.61,41.61,64.08,19.13,93.53,6.75,124.53,6.75c39.8,0,76.86,19.91,99.13,53.26,21.64,32.41,25.49,73.61,10.3,110.21-12.08,29.11-34.77,51.76-63.9,63.8-14.79,6.12-30.18,9.22-45.73,9.22h0Z"/>
  <path class="st0" d="M160.07,211.75V78.57c0-4.72-3.83-8.55-8.55-8.55h-6.2M145.31,70.02v36.27M145.31,70.02h-13.36M131.95,70.02v36.27M131.95,70.02h-14.2M103.55,106.29v-18.13M103.55,88.16v-9.58c0-4.72,3.83-8.55,8.55-8.55h5.65M103.55,88.16l-1.34-.91c-3.29-2.25-7.73-1.9-10.66.8h0c-1.75,1.62-2.76,3.91-2.76,6.3v19.27c0,2.39,1,4.66,2.75,6.28l6.75,6.24c1.75,1.62,2.75,3.9,2.75,6.28v43.07M117.75,70.02v36.27"/>
  <rect class="st0" x="171.88" y="54.14" width="16.29" height="88.78" rx="7.74" ry="7.74"/>
  <path class="st0" d="M171.88,98.74h-11.81"/>
  <path class="st0" d="M88.8,98.74h-11.81"/>
  <rect class="st0" x="60.69" y="54.14" width="16.29" height="88.78" rx="7.74" ry="7.74"/>
  <rect class="st0" x="188.17" y="70.02" width="16.29" height="57.02" rx="7.74" ry="7.74"/>
  <rect class="st0" x="44.41" y="70.02" width="16.29" height="57.02" rx="7.74" ry="7.74"/>
</svg>