<?xml version="1.0" encoding="UTF-8"?>
<svg id="Capa_1" xmlns="http://www.w3.org/2000/svg" version="1.1" viewBox="0 0 250 250">
  <!-- Generator: Adobe Illustrator 30.1.0, SVG Export Plug-In . SVG Version: 2.1.1 Build 136)  -->
  <defs>
    <style>
      .st0 {
        stroke-linecap: round;
      }

      .st0, .st1, .st2 {
        fill: none;
        stroke: #fff;
        stroke-width: 4px;
      }

      .st3 {
        fill: #fff;
      }

      .st2 {
        stroke-miterlimit: 10;
      }
    </style>
  </defs>
  <path class="st2" d="M125.67,243.25c-15.62,0-31.07-3.13-45.91-9.28-29.1-12.09-51.76-34.78-63.79-63.89C.85,133.48,4.73,92.31,26.38,59.95,48.65,26.64,85.69,6.75,125.47,6.75c31,0,60.45,12.38,82.93,34.86,33.88,33.88,44.01,84.16,25.82,128.09-18.51,44.68-61.11,73.55-108.54,73.55h0Z"/>
  <path class="st0" d="M132.77,210.38l-.02-11.41c0-2.38,1.92-4.31,4.3-4.3l34.92.06c2.37,0,4.28,1.92,4.29,4.29l.02,8.7"/>
  <path class="st0" d="M119.62,210.38l.02-11.41c0-2.38-1.92-4.31-4.3-4.3l-34.92.06c-2.37,0-4.28,1.92-4.29,4.29l-.02,8.7"/>
  <path class="st0" d="M171.54,190.24l24.26-24.26c1.68-1.68,2.62-3.96,2.62-6.33l-.02-41.36c0-3.19-2.59-5.78-5.79-5.79h0c-3.2,0-5.79,2.59-5.79,5.79l.02,30.3M186.84,148.58h0c2.26,2.26,2.26,5.92,0,8.18l-16.22,16.22M186.84,148.58c-1.02-1.1-3.93-2.43-7.38,1.02-2.73,2.73-7.2,7.2-10.28,10.28-1.36,1.36-3.12,2.2-4.97,2.69-8.45,2.22-21.92,9.45-25.14,25.6"/>
  <path class="st0" d="M80.84,190.24l-24.26-24.26c-1.68-1.68-2.62-3.96-2.62-6.33l.02-41.36c0-3.19,2.59-5.78,5.79-5.79h0c3.2,0,5.79,2.59,5.79,5.79l-.02,30.3M65.54,148.58h0c-2.26,2.26-2.26,5.92,0,8.18l16.22,16.22M65.54,148.58c1.02-1.1,3.93-2.43,7.38,1.02,2.73,2.73,7.2,7.2,10.28,10.28,1.36,1.36,3.12,2.2,4.97,2.69,8.45,2.22,21.92,9.45,25.14,25.6"/>
  <ellipse class="st2" cx="141.56" cy="202.82" rx="2.37" ry="2.22" transform="translate(-101.95 159.5) rotate(-45)"/>
  <ellipse class="st2" cx="110.82" cy="202.82" rx="2.22" ry="2.37" transform="translate(-110.96 137.77) rotate(-45)"/>
  <path class="st3" d="M117.45,104.37c-.85,0-1.71-.32-2.36-.97l-5.77-5.77c-.8-.8-.8-2.1,0-2.9.8-.8,2.1-.8,2.9,0l5.23,5.23,21.74-21.77c.8-.8,2.1-.8,2.9,0,.8.8.8,2.1,0,2.9l-22.28,22.31c-.65.65-1.51.97-2.36.97Z"/>
  <path class="st0" d="M109.21,53.26l-.52-1.18.52,1.18ZM86.48,122.32l.91-.91-.91.91ZM95.87,131.7l.91-.91-.91.91ZM109.35,130.68l-.51,1.18.51-1.18ZM111.05,131.37l-.46,1.2.46-1.2ZM141.45,131.37l-.46-1.2.46,1.2ZM143.29,130.61l-.52-1.18.52,1.18ZM164.93,108.98l-1.18-.52,1.18.52ZM165.89,106.6l1.2.45-1.2-.45ZM165.89,77.28l1.2-.45-1.2.45ZM164.99,75.05l-1.18.51,1.18-.51ZM166.01,61.56l.91-.91-.91.91ZM156.63,52.17l-.91.91.91-.91ZM143.14,53.2l-.52,1.18.52-1.18ZM132.7,41.05h-12.91v2.57h12.91v-2.57ZM143.66,52.02c-.58-.25-1.16-.49-1.75-.72l-.92,2.4c.55.21,1.1.44,1.64.67l1.03-2.35ZM166.92,60.65l-9.39-9.39-1.82,1.82,9.39,9.39,1.82-1.82ZM167.09,76.84c-.29-.78-.6-1.55-.93-2.31l-2.36,1.03c.31.71.6,1.44.87,2.17l2.41-.89ZM177.14,97.98v-12.08h-2.57v12.08h2.57ZM166.1,109.5c.36-.81.69-1.62.99-2.46l-2.41-.89c-.29.78-.6,1.55-.94,2.31l2.35,1.04ZM165.03,121.49l-9.23,9.23,1.82,1.82,9.23-9.23-1.82-1.82ZM141.91,132.57c.64-.25,1.27-.51,1.9-.78l-1.04-2.35c-.59.26-1.18.51-1.78.74l.92,2.4ZM119.8,142.82h12.91v-2.57h-12.91v2.57ZM108.84,131.86c.58.25,1.16.49,1.75.72l.92-2.4c-.55-.21-1.1-.44-1.64-.67l-1.03,2.35ZM85.57,123.23l9.39,9.39,1.82-1.82-9.39-9.39-1.82,1.82ZM85.4,107.04c.29.78.6,1.55.93,2.31l2.35-1.03c-.31-.71-.6-1.44-.87-2.17l-2.41.89ZM75.37,85.9v12.08h2.57v-12.08h-2.57ZM86.4,74.38c-.36.81-.69,1.62-1,2.46l2.41.89c.29-.78.6-1.55.94-2.31l-2.35-1.04ZM87.47,62.39l9.23-9.23-1.82-1.82-9.23,9.23,1.82,1.82ZM110.59,51.3c-.64.25-1.27.51-1.9.78l1.04,2.35c.59-.26,1.18-.51,1.78-.74l-.92-2.4ZM111.51,53.7c2.56-.98,4.47-3.39,4.47-6.27h-2.57c0,1.68-1.14,3.21-2.83,3.87l.92,2.4ZM102.12,53.16c2.04,2.04,5.1,2.39,7.61,1.28l-1.04-2.35c-1.67.74-3.56.45-4.76-.74l-1.82,1.82ZM96.7,53.16c1.5-1.49,3.92-1.49,5.42,0l1.82-1.82c-2.5-2.5-6.55-2.5-9.05,0l1.82,1.82ZM87.47,67.8c-1.5-1.49-1.5-3.92,0-5.42l-1.82-1.82c-2.5,2.5-2.5,6.55,0,9.05l1.82-1.82ZM88.75,75.42c1.11-2.51.76-5.57-1.28-7.61l-1.82,1.82c1.19,1.19,1.48,3.09.74,4.76l2.35,1.04ZM81.63,82.2c2.86,0,5.24-1.92,6.18-4.47l-2.41-.89c-.62,1.67-2.12,2.79-3.77,2.79v2.57ZM77.93,85.9c0-2.04,1.66-3.7,3.7-3.7v-2.57c-3.46,0-6.27,2.81-6.27,6.27h2.57ZM81.63,101.68c-2.04,0-3.7-1.65-3.7-3.7h-2.57c0,3.46,2.8,6.27,6.27,6.27v-2.57ZM87.81,106.15c-.94-2.55-3.32-4.47-6.18-4.47v2.57c1.65,0,3.15,1.12,3.77,2.79l2.41-.89ZM87.39,115.95c2.04-2.04,2.4-5.11,1.29-7.63l-2.35,1.03c.73,1.68.44,3.58-.76,4.78l1.82,1.82ZM87.39,121.41c-1.51-1.51-1.51-3.95,0-5.46l-1.82-1.82c-2.51,2.51-2.51,6.59,0,9.1l1.82-1.82ZM102.24,130.8c-1.51,1.51-3.95,1.51-5.46,0l-1.82,1.82c2.51,2.51,6.59,2.51,9.1,0l-1.82-1.82ZM109.87,129.5c-2.52-1.1-5.59-.75-7.63,1.29l1.82,1.82c1.2-1.2,3.1-1.49,4.78-.76l1.03-2.35ZM115.99,136.44c0-2.88-1.92-5.28-4.47-6.27l-.92,2.4c1.69.65,2.83,2.19,2.83,3.87h2.57ZM119.8,140.25c-2.11,0-3.81-1.71-3.81-3.81h-2.57c0,3.52,2.86,6.38,6.38,6.38v-2.57ZM136.51,136.44c0,2.11-1.71,3.81-3.81,3.81v2.57c3.52,0,6.38-2.86,6.38-6.38h-2.57ZM140.99,130.18c-2.56.98-4.47,3.39-4.47,6.27h2.57c0-1.68,1.13-3.21,2.83-3.87l-.92-2.4ZM150.38,130.72c-2.04-2.04-5.1-2.39-7.61-1.28l1.04,2.35c1.67-.74,3.56-.45,4.76.74l1.82-1.82ZM155.8,130.72c-1.49,1.49-3.92,1.49-5.42,0l-1.82,1.82c2.5,2.5,6.55,2.5,9.05,0l-1.82-1.82ZM165.03,116.07c1.5,1.49,1.5,3.92,0,5.42l1.82,1.82c2.5-2.5,2.5-6.55,0-9.05l-1.82,1.82ZM163.75,108.46c-1.11,2.51-.76,5.57,1.28,7.61l1.82-1.82c-1.19-1.19-1.48-3.09-.74-4.76l-2.35-1.04ZM170.87,101.68c-2.86,0-5.24,1.92-6.18,4.47l2.41.89c.62-1.67,2.12-2.79,3.77-2.79v-2.57ZM174.56,97.98c0,2.04-1.65,3.7-3.7,3.7v2.57c3.46,0,6.27-2.81,6.27-6.27h-2.57ZM170.87,82.2c2.04,0,3.7,1.65,3.7,3.7h2.57c0-3.46-2.81-6.27-6.27-6.27v2.57ZM164.68,77.73c.94,2.55,3.33,4.47,6.18,4.47v-2.57c-1.65,0-3.15-1.12-3.77-2.79l-2.41.89ZM165.11,67.93c-2.04,2.04-2.4,5.11-1.3,7.63l2.36-1.03c-.74-1.68-.44-3.58.76-4.78l-1.82-1.82ZM165.11,62.47c1.51,1.51,1.51,3.95,0,5.46l1.82,1.82c2.51-2.51,2.51-6.59,0-9.1l-1.82,1.82ZM150.26,53.08c1.51-1.51,3.96-1.51,5.46,0l1.82-1.82c-2.51-2.51-6.59-2.51-9.1,0l1.82,1.82ZM142.63,54.38c2.52,1.1,5.59.75,7.63-1.29l-1.82-1.82c-1.2,1.2-3.1,1.49-4.78.76l-1.03,2.35ZM136.51,47.43c0,2.88,1.92,5.28,4.47,6.27l.92-2.4c-1.69-.65-2.83-2.19-2.83-3.87h-2.57ZM119.8,41.05c-3.52,0-6.38,2.86-6.38,6.38h2.57c0-2.11,1.71-3.81,3.81-3.81v-2.57ZM132.7,43.62c2.1,0,3.81,1.71,3.81,3.81h2.57c0-3.52-2.86-6.38-6.38-6.38v2.57Z"/>
  <circle class="st1" cx="126.25" cy="91.94" r="29.04"/>
</svg>