<?xml version="1.0" encoding="UTF-8"?>
<svg id="Capa_1" xmlns="http://www.w3.org/2000/svg" version="1.1" viewBox="0 0 250 250">
  <!-- Generator: Adobe Illustrator 30.1.0, SVG Export Plug-In . SVG Version: 2.1.1 Build 136)  -->
  <defs>
    <style>
      .st0 {
        fill: #fff;
      }

      .st1 {
        fill: none;
        stroke: #fff;
        stroke-miterlimit: 10;
        stroke-width: 4px;
      }
    </style>
  </defs>
  <path class="st1" d="M124.52,243.25c-30.99,0-60.44-12.38-82.91-34.85C7.73,174.51-2.41,124.23,15.79,80.3,34.3,35.62,76.9,6.75,124.33,6.75c15.62,0,31.06,3.12,45.9,9.28,29.1,12.07,51.75,34.76,63.79,63.88,15.13,36.61,11.24,77.79-10.41,110.16-22.27,33.3-59.31,53.18-99.08,53.18h-.02Z"/>
  <path class="st0" d="M218.42,119.99c-6.69-14.4-17.93-28.75-25.02-43.18-2.52-3.4-6.05-5.25-10.38-4.5-2.3.4-10.49,5.13-12.55,6.71-4.38,3.36-5.36,8.15-3.08,13.17-4.25,1.66-7.83,3.63-12.59,3.17-4.75-.46-8.8-3.91-13.7-4.36-5.76-.52-20.6,3.43-25.87,6.01-1.5.73-4.27,2.86-5.36,2.79-9.52-2.37-19.4-3.33-28.34-7.61,1.67-3.49,1.7-7.24-.47-10.56-1.98-3.03-13.36-9.53-16.98-9.53-4.4,0-6.97,2.28-9.2,5.68-9,13.74-16.26,29.58-25.05,43.55-1.47,3.15-.99,6.93.98,9.75,1.73,2.49,12.3,8.83,15.25,9.22,3.85.51,7-.76,9.59-3.57,1.94,2.2,3.52,4.75,5.43,7,.73.86,3.79,3.48,3.95,4.11.23.91-1.4,3.03-1.68,4.2-1.9,7.85,4.44,13.89,12.16,12.76-.52,7.95,6.85,12.11,14.04,10.03.47,6,6.1,9.2,11.8,8.39,1.39-.2,2.42-1.19,3.82-1.14,1.69,5.91,10.06,8.95,15.02,5.13.98-.75,1.61-2.47,3.19-2.69,5.31,2.52,11.14,8.22,17.28,7.51,5.38-.62,9.26-5.83,8.67-11.19,7.09,2.14,13.52-3.65,13.24-10.83,6.83,1.78,13.75-3.57,12.84-10.83,3.58.95,7.75,0,10.42-2.64.39-.38.32-.86.41-.97,1.96-2.45,2.74-4.05,2.36-7.38-.15-1.29-.95-2.46-1.09-3.35-.26-1.67,4.79-6.37,5.75-8.12,2.33,2.57,5.34,3.86,8.84,3.62,3.46-.24,14.45-6.75,16.31-9.77,2.28-3.68,1.73-6.85,0-10.58ZM52.99,133.23c-2.85,3.85-5.2,3.55-9.16,1.68-1.8-.85-7.27-3.85-8.62-5.02-3.47-3-1.54-7.02.2-10.24,4.42-8.17,9.52-16.9,14.2-24.93.09-.15,7.21-13.5,9.88-16.39,2.05-2.22,4.66-2.5,7.38-1.36,1.64.69,8.66,4.71,9.85,5.8,2.9,2.65,1.96,5.5.49,8.47-7,14.16-17.01,27.81-24.21,41.99ZM77.92,158.16c-4.44,5.33-11.89,1.46-10.65-4.62.32-1.57,7.61-14.42,8.88-16,.78-.97,2.03-2.08,3.27-2.34,4.34-.9,8.42,2.26,7.56,6.74-.36,1.87-7.6,14.46-9.07,16.22ZM89.91,169.35c-4.65,5.03-12.85-.15-9.64-7.23,2.04-4.5,4.93-8.52,7.49-12.73,1.78-2.93,3.65-8.64,7.67-9.04,3.87-.39,7.38,2.57,6.95,6.55-.13,1.24-.96,2.61-1.51,3.72-1.78,3.62-8.65,16.23-10.96,18.73ZM104.01,177.03c-4.54,5.36-12.86.45-10.05-6.44,1.37-3.34,10.96-20.05,13.16-22.55.88-1,1.84-1.76,3.2-2.01,4.7-.87,8.36,2.85,7.14,7.54l-13.45,23.46ZM119.03,182.82c-2.92,3.2-9.23,2-10.11-2.27-.58-2.81.29-4.09,1.44-6.4,2.12-4.24,4.8-8.21,7.14-12.34,1.57-2.77,5.69-3.7,8.43-1.99,3.1,1.92,2.81,5.95,1.41,8.85-1.37,2.85-6.45,12.11-8.32,14.15ZM183.85,152.76c-.13.22-2.43,2.12-2.79,2.23-1.35.42-3.14.16-4.55.1l-20.33-11.78c-2.59-.88-4.51,1.5-2.22,3.44,3.86,3.29,12.65,6.05,15.85,9.43,2.61,2.76,1.97,7.25-1.22,9.21-3.09,1.9-5.1.51-7.88-.92-2.19-1.13-12.55-7.82-13.88-7.63-1.72.26-2.49,2.43-1.07,3.73,2.84,2.6,11.46,4.79,12.32,8.94.74,3.57-.81,6.57-4.4,7.46-4.88,1.21-11.73-6.61-14.95-6.16-.78.11-1.67,1.12-1.74,1.88-.2,2.11,5.11,3.68,6.55,5.34,3.5,4.05.76,10.23-4.41,10.06-1.64-.05-13.64-6.68-13.83-7.48,2.94-6.85,10.89-13.8,5.52-21.56-2.04-2.95-5.58-4.53-9.16-4.28,1.79-9.49-7.34-16.5-15.64-11.24-1.81-6.59-9.27-9.18-15.07-5.7-2.81-5.51-7.64-8.63-13.82-6.13-5.08,2.05-8.35,11.87-9.48,12.21-.34.1-.66.03-.95-.17l-8.22-10.25-.13-1.69,21.04-36.04c8.67,4,18,5.94,27.43,7.26.18.7-.29.8-.6,1.2-3.46,4.5-13.36,9.63-8.8,16.42,4.03,6.01,14.34,5.35,19.62,1.22,1.39-1.09,5.68-6.36,6.23-6.61,1.16-.53,5.68-.01,7.22.2,1.86.25,4.61,3.61,6.45,4.98,4.7,3.5,9.87,5.44,15.48,6.98l30.19,17.55c2,1.75,2.56,5.56,1.23,7.8ZM190.47,133.48c-.39.87-3.82,5.36-4.63,6.22-.45.48-.84,1.05-1.45,1.36l-23.01-13.38c2.04-.26,11.41-1.48,11.15-4.35-.32-3.47-5.17-.85-7.13-.46-11.36,2.27-19.91-.61-28.68-7.84-.89-.74-2.73-3.08-3.43-3.39-1.33-.6-3.54-.13-4.81-.21-1.8-.11-4.79-.93-6.41-.19-1.18.54-5.07,5.32-6.64,6.6-2.48,2.02-5.01,3.39-8.35,3.18-2.53-.15-8.27-2.03-6.3-5.4,5.24-4.05,10.89-12.92,16.87-15.42,3.53-1.47,15.78-4.87,19.46-5.21,8.85-.82,13.43,6.5,24.35,3.89,1.61-.38,7.59-3.4,8.35-2.91l20.79,36.23c.17.48.06.84-.14,1.28ZM213.96,129.71c-1.15,1.09-10.14,6.12-11.63,6.42-2.67.54-4.6-.6-6.21-2.66-7.3-13.99-16.77-27.46-23.97-41.43-1.57-3.06-3.09-6.09-.13-9.1.94-.96,8.31-5.19,9.81-5.84.77-.34,1.92-.84,2.73-.88,2.3-.13,4.91,1.47,5.89,3.54l25.02,43.59c.31,2.29.29,4.66-1.49,6.35Z"/>
</svg>