<?xml version="1.0" encoding="UTF-8"?>
<svg id="Capa_1" xmlns="http://www.w3.org/2000/svg" version="1.1" viewBox="0 0 250 250">
  <!-- Generator: Adobe Illustrator 30.1.0, SVG Export Plug-In . SVG Version: 2.1.1 Build 136)  -->
  <defs>
    <style>
      .st0 {
        stroke-linecap: round;
      }

      .st0, .st1 {
        fill: none;
        stroke: #fff;
        stroke-width: 4px;
      }

      .st1 {
        stroke-miterlimit: 10;
      }
    </style>
  </defs>
  <path class="st1" d="M125,243.25c-15.63,0-30.88-3.04-45.32-9.03C26.92,212.32-2.13,157.91,9.03,101.89,20.2,45.88,67.88,6.75,125,6.75s104.85,39.16,115.98,95.22c11.13,56.06-17.99,110.46-70.81,132.3-14.41,5.95-29.61,8.97-45.17,8.97Z"/>
  <path class="st0" d="M195.98,105.73c-2.66,0-5.08-1.81-6.08-4.5-.46-1.25-.96-2.49-1.49-3.71-1.18-2.7-.71-5.77,1.22-7.7,4.05-4.05,4.05-10.61,0-14.65l-15.12-15.12c-4.04-4.05-10.61-4.05-14.65,0-1.93,1.93-5,2.4-7.7,1.22-.93-.41-1.87-.79-2.82-1.16-2.73-1.05-4.55-3.53-4.55-6.23,0-5.67-4.6-10.27-10.28-10.27h-20.78c-5.68,0-10.28,4.6-10.28,10.27,0,2.71-1.83,5.18-4.56,6.23-1.03.4-2.05.82-3.06,1.26-2.69,1.19-5.74.72-7.66-1.2-4.03-4.03-10.56-4.03-14.58,0l-14.86,14.86c-4.03,4.03-4.03,10.55,0,14.58,1.92,1.92,2.38,4.97,1.2,7.66-.57,1.3-1.11,2.62-1.6,3.95-.99,2.69-3.42,4.5-6.07,4.5-5.57,0-10.09,4.52-10.09,10.09v19.46c0,5.57,4.52,10.09,10.09,10.09,2.65,0,5.08,1.81,6.07,4.51.47,1.25.97,2.49,1.5,3.71,1.18,2.7.71,5.77-1.22,7.7-4.04,4.04-4.04,10.61,0,14.65l15.12,15.12c4.05,4.05,10.61,4.05,14.65,0,1.94-1.93,5-2.4,7.71-1.22.93.4,1.87.79,2.81,1.16,2.73,1.05,4.56,3.53,4.56,6.23,0,5.68,4.6,10.28,10.28,10.28h20.78c5.67,0,10.28-4.6,10.28-10.28,0-2.71,1.82-5.18,4.55-6.23,1.03-.4,2.05-.82,3.06-1.26,2.69-1.18,5.74-.72,7.66,1.2,4.03,4.03,10.56,4.03,14.58,0l14.86-14.86c4.02-4.03,4.02-10.56,0-14.58-1.92-1.92-2.38-4.97-1.2-7.66.57-1.3,1.11-2.61,1.6-3.95,1-2.7,3.42-4.51,6.08-4.51,5.57,0,10.09-4.52,10.09-10.09v-19.46c0-5.57-4.52-10.09-10.09-10.09Z"/>
  <circle class="st0" cx="124.12" cy="125.55" r="55.05"/>
  <circle class="st0" cx="124.12" cy="125.55" r="4.55"/>
  <path class="st0" d="M120.4,121.83l-24.42-24.42"/>
  <path class="st0" d="M127.84,121.83l14.08-14.07"/>
  <path class="st0" d="M124.12,78.37v6.62"/>
  <path class="st0" d="M76.94,125.55h6.62"/>
  <path class="st0" d="M124.12,166.12v6.62"/>
  <path class="st0" d="M164.68,125.55h6.62"/>
</svg>