<?xml version="1.0" encoding="UTF-8"?>
<svg id="Capa_1" xmlns="http://www.w3.org/2000/svg" version="1.1" xmlns:xlink="http://www.w3.org/1999/xlink" viewBox="0 0 24 24">
  <!-- Generator: Adobe Illustrator 30.1.0, SVG Export Plug-In . SVG Version: 2.1.1 Build 136)  -->
  <defs>
    <style>
      .st0 {
        fill: url(#Degradado_sin_nombre_561);
      }

      .st1 {
        fill: url(#Degradado_sin_nombre_562);
      }

      .st2 {
        fill: url(#Degradado_sin_nombre_566);
      }

      .st3 {
        fill: url(#Degradado_sin_nombre_567);
      }

      .st4 {
        fill: url(#Degradado_sin_nombre_565);
      }

      .st5 {
        fill: url(#Degradado_sin_nombre_56);
      }

      .st6 {
        fill: url(#Degradado_sin_nombre_563);
      }

      .st7 {
        fill: url(#Degradado_sin_nombre_564);
      }
    </style>
    <linearGradient id="Degradado_sin_nombre_56" data-name="Degradado sin nombre 56" x1="12" y1="15.27" x2="12" y2="3.44" gradientUnits="userSpaceOnUse">
      <stop offset="0" stop-color="#295e9a"/>
      <stop offset="1" stop-color="#0783af"/>
    </linearGradient>
    <linearGradient id="Degradado_sin_nombre_561" data-name="Degradado sin nombre 56" x1="5.59" y1="18.32" x2="5.59" y2="9.3" xlink:href="#Degradado_sin_nombre_56"/>
    <linearGradient id="Degradado_sin_nombre_562" data-name="Degradado sin nombre 56" x1="12" y1="12.93" x2="12" y2="5.72" xlink:href="#Degradado_sin_nombre_56"/>
    <linearGradient id="Degradado_sin_nombre_563" data-name="Degradado sin nombre 56" x1="12" y1="5.44" x2="12" y2="5.12" xlink:href="#Degradado_sin_nombre_56"/>
    <linearGradient id="Degradado_sin_nombre_564" data-name="Degradado sin nombre 56" x1="12" y1="22.98" x2="12" y2="1.02" xlink:href="#Degradado_sin_nombre_56"/>
    <linearGradient id="Degradado_sin_nombre_565" data-name="Degradado sin nombre 56" x1="18.41" y1="18.32" x2="18.41" y2="9.3" xlink:href="#Degradado_sin_nombre_56"/>
    <linearGradient id="Degradado_sin_nombre_566" data-name="Degradado sin nombre 56" x1="7.89" y1="20.31" x2="7.89" y2="16.97" xlink:href="#Degradado_sin_nombre_56"/>
    <linearGradient id="Degradado_sin_nombre_567" data-name="Degradado sin nombre 56" x1="16.1" y1="20.31" x2="16.1" y2="16.97" xlink:href="#Degradado_sin_nombre_56"/>
  </defs>
  <path class="st5" d="M15.76,13.96l.85-.85-.32-.72c-.04-.09-.04-.21.01-.3.33-.51.55-1.05.68-1.65.01-.06.08-.16.13-.18l.79-.31v-1.21s-.78-.31-.78-.31c-.07-.03-.13-.12-.15-.2-.13-.6-.36-1.13-.68-1.64-.06-.09-.04-.21,0-.3l.31-.7-.85-.86-.73.32c-.08.04-.2.04-.28-.01-.51-.33-1.05-.55-1.65-.68-.09-.02-.18-.1-.21-.18l-.12-.31c-.4.05-.62.42-.53.79h1.2c.11,0,.19.14.19.23v.71c1.79.8,2.76,2.73,2.32,4.62-.42,1.83-2.08,3.16-3.97,3.15-1.89,0-3.53-1.34-3.94-3.17-.42-1.89.55-3.81,2.33-4.6v-.74c0-.1.13-.2.23-.2h1.18c-.05-.56.23-1.01.76-1.23h-1.15s-.3.76-.3.76c-.02.05-.1.14-.16.15-.59.14-1.14.34-1.65.67-.11.07-.22.07-.33.02l-.71-.31-.78.77s-.06.15-.04.19l.29.65c.02.05.01.18-.02.24-.33.53-.56,1.07-.69,1.68-.01.06-.09.15-.14.17l-.78.31v1.21s.77.3.77.3c.06.02.14.12.16.19.13.61.36,1.15.69,1.67.03.04.04.17.02.21l-.33.78.86.85.76-.33c.05-.02.19,0,.23.02.52.34,1.07.56,1.67.69.06.01.15.09.17.14l.31.78h1.2s.3-.77.3-.77c.02-.06.11-.14.18-.16.59-.13,1.12-.34,1.63-.67.07-.04.2-.08.27-.05l.78.34Z"/>
  <path class="st0" d="M7.95,16.94l-.32-.66c.29-.91-.25-1.81-1.17-2-.42-.09-.76-.37-.94-.77l-.4-.87c-.1-.21-.35-.27-.52-.2-.21.09-.33.33-.23.54l1.1,2.43c.05.11-.03.26-.11.29-.11.04-.25,0-.3-.12l-1.09-2.41c-.13-.28-.1-.59.08-.85.14-.21.38-.35.69-.38v-2.36c0-.15-.14-.26-.25-.29-.1-.03-.33,0-.37.12l-.86,4.15c-.06.28.02.53.2.74l2.45,2.97.5,1.02,1.57-1.38Z"/>
  <path class="st1" d="M8.41,9.66c.19,1.98,1.94,3.43,3.91,3.26,1.99-.18,3.46-1.94,3.27-3.93-.18-1.95-1.92-3.44-3.92-3.25-2.01.18-3.44,1.97-3.26,3.92ZM12.05,11.65c-.12.02-.24-.06-.26-.15-.03-.13.02-.26.18-.28.13-.02.25.08.26.18.01.13-.07.24-.17.26ZM11.99,7c.12,0,.24.09.24.24v3.19c0,.17-.08.26-.21.27-.11,0-.24-.07-.24-.22v-3.25c0-.13.1-.23.21-.23Z"/>
  <path class="st6" d="M10.84,5.44c.79-.23,1.55-.22,2.32,0v-.32s-2.33,0-2.33,0v.32Z"/>
  <path class="st7" d="M12,1.02C5.94,1.02,1.02,5.94,1.02,12s4.92,10.98,10.98,10.98,10.98-4.92,10.98-10.98S18.06,1.02,12,1.02ZM10.05,18.29l-2.84,2.5c-.12.1-.26.08-.35-.03l-.96-1.1c-.27-.31-.19-.76.12-1.02-.22-.34-.26-.78-.52-1.09l-2.41-2.93c-.26-.32-.37-.71-.29-1.12l.89-4.23c.07-.34.57-.46.84-.4.31.06.65.31.65.68v2.53c.16.12.29.25.37.43l.4.86c.11.23.32.42.57.47,1.12.22,1.84,1.28,1.59,2.41.06.13.14.27.21.38.09-.1.3-.29.42-.17l1.32,1.48c.1.11.1.26,0,.35ZM13.05,15.38c-.08.2-.3.34-.53.34h-1.04c-.24,0-.46-.15-.54-.36l-.23-.59c-.59-.15-1.12-.37-1.62-.68l-.63.27c-.19.08-.45,0-.6-.14l-.74-.74c-.16-.16-.21-.42-.12-.62l.26-.6c-.32-.52-.53-1.05-.68-1.62l-.6-.24c-.22-.08-.35-.31-.35-.55v-1.03c0-.24.16-.45.37-.53l.59-.24c.14-.58.35-1.09.67-1.61l-.26-.62c-.08-.19-.03-.44.12-.59l.72-.73c.16-.16.43-.25.65-.16l.61.26c.51-.3,1.03-.53,1.62-.67l.23-.58c.09-.22.3-.37.55-.37h1.03c.26,0,.48.16.56.41l.25.02c.42.03.72-.3.69-.72-.01-.13.06-.26.18-.28.14-.03.26.06.27.21.03.36-.07.67-.3.92-.23.25-.54.3-.92.36.61.2,1.15.37,1.66.71l.59-.26c.21-.09.47-.05.63.11l.75.76c.17.17.2.44.1.65l-.25.55c.3.51.53,1.03.67,1.62l.59.24c.21.08.37.29.37.53v1.06c0,.26-.18.45-.4.54l-.56.22c-.14.59-.35,1.1-.67,1.62l.27.63c.08.19.02.45-.13.59l-.73.74c-.17.17-.44.22-.66.12l-.57-.25c-.51.31-1.03.53-1.62.67l-.25.62ZM18.49,17.53l-.51,1.11c.33.28.37.74.09,1.06l-.93,1.06c-.1.11-.24.13-.35.03l-2.81-2.47c-.11-.1-.16-.24-.06-.35l1.34-1.51c.11-.13.32.06.41.16.08-.1.16-.25.21-.38-.25-1.1.43-2.15,1.53-2.39.27-.06.5-.21.62-.47l.41-.88c.08-.17.2-.3.37-.43v-2.28c-.01-.42.13-.76.55-.9.28-.1.86-.02.94.38l.89,4.2c.09.4,0,.81-.27,1.13l-2.44,2.94Z"/>
  <path class="st4" d="M19.53,9.31c-.09.03-.26.12-.26.26v2.39c.31.02.55.16.7.38.16.24.21.55.09.82l-1.1,2.44c-.05.12-.19.16-.3.12-.09-.04-.17-.17-.11-.29l1.1-2.43c.1-.22-.02-.46-.23-.54-.18-.07-.43-.01-.52.2l-.4.88c-.19.41-.53.67-.98.77-.91.2-1.41,1.11-1.12,1.99l-.32.66,1.57,1.38.48-1.01,2.46-2.98c.19-.23.25-.49.19-.78l-.86-4.12c-.03-.13-.28-.15-.37-.13Z"/>
  <path class="st2" d="M6.27,19.03c-.12.1-.07.3,0,.39l.32.35,1.1-.97c.09-.08.25-.06.31.02.08.09.08.24-.02.33l-1.09.96.18.2,2.52-2.22-.98-1.12-2.34,2.06Z"/>
  <path class="st3" d="M17.48,19.34c-.09,0-.23-.13-.18-.25l.12-.34-2.03-1.79-.99,1.12,2.52,2.22c.07-.08.12-.14.17-.21l-1.1-.96c-.09-.08-.08-.23-.02-.31.08-.1.24-.11.33-.03l1.1.96.32-.35c.07-.08.09-.21.06-.29-.09.15-.16.23-.3.22Z"/>
</svg>