<?xml version="1.0" encoding="UTF-8"?>
<svg id="Capa_1" xmlns="http://www.w3.org/2000/svg" version="1.1" xmlns:xlink="http://www.w3.org/1999/xlink" viewBox="0 0 24 24">
  <!-- Generator: Adobe Illustrator 30.1.0, SVG Export Plug-In . SVG Version: 2.1.1 Build 136)  -->
  <defs>
    <style>
      .st0 {
        fill: url(#Degradado_sin_nombre_561);
      }

      .st1 {
        fill: url(#Degradado_sin_nombre_562);
      }

      .st2 {
        fill: url(#Degradado_sin_nombre_566);
      }

      .st3 {
        fill: url(#Degradado_sin_nombre_5615);
      }

      .st4 {
        fill: url(#Degradado_sin_nombre_567);
      }

      .st5 {
        fill: url(#Degradado_sin_nombre_568);
      }

      .st6 {
        fill: url(#Degradado_sin_nombre_5611);
      }

      .st7 {
        fill: url(#Degradado_sin_nombre_569);
      }

      .st8 {
        fill: url(#Degradado_sin_nombre_5610);
      }

      .st9 {
        fill: url(#Degradado_sin_nombre_5616);
      }

      .st10 {
        fill: url(#Degradado_sin_nombre_565);
      }

      .st11 {
        fill: url(#Degradado_sin_nombre_5617);
      }

      .st12 {
        fill: url(#Degradado_sin_nombre_56);
      }

      .st13 {
        fill: url(#Degradado_sin_nombre_5614);
      }

      .st14 {
        fill: url(#Degradado_sin_nombre_563);
      }

      .st15 {
        fill: url(#Degradado_sin_nombre_5612);
      }

      .st16 {
        fill: url(#Degradado_sin_nombre_5613);
      }

      .st17 {
        fill: url(#Degradado_sin_nombre_5618);
      }

      .st18 {
        fill: url(#Degradado_sin_nombre_564);
      }
    </style>
    <linearGradient id="Degradado_sin_nombre_56" data-name="Degradado sin nombre 56" x1="9.17" y1="9" x2="9.17" y2="7.87" gradientUnits="userSpaceOnUse">
      <stop offset="0" stop-color="#295e9a"/>
      <stop offset="1" stop-color="#0783af"/>
    </linearGradient>
    <linearGradient id="Degradado_sin_nombre_561" data-name="Degradado sin nombre 56" x1="12.56" y1="8.72" x2="12.56" y2="7.58" xlink:href="#Degradado_sin_nombre_56"/>
    <linearGradient id="Degradado_sin_nombre_562" data-name="Degradado sin nombre 56" x1="9.17" y1="12.96" x2="9.17" y2="6.73" xlink:href="#Degradado_sin_nombre_56"/>
    <linearGradient id="Degradado_sin_nombre_563" data-name="Degradado sin nombre 56" x1="5.77" y1="15.68" x2="5.77" y2="11.66" xlink:href="#Degradado_sin_nombre_56"/>
    <linearGradient id="Degradado_sin_nombre_564" data-name="Degradado sin nombre 56" y1="11.83" y2="10.7" xlink:href="#Degradado_sin_nombre_56"/>
    <linearGradient id="Degradado_sin_nombre_565" data-name="Degradado sin nombre 56" x1="7.75" y1="18.34" x2="7.75" y2="16.64" xlink:href="#Degradado_sin_nombre_56"/>
    <linearGradient id="Degradado_sin_nombre_566" data-name="Degradado sin nombre 56" x1="17.06" y1="14.75" x2="17.06" y2="11.66" xlink:href="#Degradado_sin_nombre_56"/>
    <linearGradient id="Degradado_sin_nombre_567" data-name="Degradado sin nombre 56" x1="15.11" y1="11.55" x2="15.11" y2="10.41" gradientTransform="translate(.05 -.06) rotate(.24)" xlink:href="#Degradado_sin_nombre_56"/>
    <linearGradient id="Degradado_sin_nombre_568" data-name="Degradado sin nombre 56" x1="15.11" y1="5.88" x2="15.11" y2="4.75" xlink:href="#Degradado_sin_nombre_56"/>
    <linearGradient id="Degradado_sin_nombre_569" data-name="Degradado sin nombre 56" x1="13.7" y1="12.93" x2="13.7" y2="3.62" xlink:href="#Degradado_sin_nombre_56"/>
    <linearGradient id="Degradado_sin_nombre_5610" data-name="Degradado sin nombre 56" x1="12.78" y1="15.66" x2="12.78" y2="12.68" xlink:href="#Degradado_sin_nombre_56"/>
    <linearGradient id="Degradado_sin_nombre_5611" data-name="Degradado sin nombre 56" x1="16.1" y1="20.02" x2="16.1" y2="14.96" xlink:href="#Degradado_sin_nombre_56"/>
    <linearGradient id="Degradado_sin_nombre_5612" data-name="Degradado sin nombre 56" x1="10.24" y1="19.47" x2="10.24" y2="12.98" xlink:href="#Degradado_sin_nombre_56"/>
    <linearGradient id="Degradado_sin_nombre_5613" data-name="Degradado sin nombre 56" x1="18.08" y1="20.02" x2="18.08" y2="14.96" xlink:href="#Degradado_sin_nombre_56"/>
    <linearGradient id="Degradado_sin_nombre_5614" data-name="Degradado sin nombre 56" x1="8.74" y1="19.19" x2="8.74" y2="17.21" xlink:href="#Degradado_sin_nombre_56"/>
    <linearGradient id="Degradado_sin_nombre_5615" data-name="Degradado sin nombre 56" x1="12.39" y1="20.05" x2="12.39" y2="18.96" xlink:href="#Degradado_sin_nombre_56"/>
    <linearGradient id="Degradado_sin_nombre_5616" data-name="Degradado sin nombre 56" x1="9.87" y1="19.75" x2="9.87" y2="17.78" xlink:href="#Degradado_sin_nombre_56"/>
    <linearGradient id="Degradado_sin_nombre_5617" data-name="Degradado sin nombre 56" x1="12" y1="22.98" x2="12" y2="1.02" xlink:href="#Degradado_sin_nombre_56"/>
    <linearGradient id="Degradado_sin_nombre_5618" data-name="Degradado sin nombre 56" x1="10.72" y1="20.04" x2="10.72" y2="18.91" xlink:href="#Degradado_sin_nombre_56"/>
  </defs>
  <rect class="st12" x="8.03" y="7.87" width="2.26" height="1.13"/>
  <rect class="st0" x="12" y="7.58" width="1.13" height="1.13"/>
  <path class="st1" d="M7.47,10.41c0-.15.12-.28.28-.28h2.83c.16,0,.28.13.28.28v1.7c0,.16-.13.28-.3.28h-2.58c.13.21.31.23.48.32.29.15.62.25.95.25h1.02c.33-.2.65-.34,1-.5v-5.73s-4.53,0-4.53,0v4.75s.56.38.56.38v-1.45ZM7.75,7.3h2.83c.16,0,.28.13.28.28v1.7c-.01.15-.1.26-.27.28h-2.85c-.16,0-.28-.13-.28-.28v-1.7c0-.15.12-.28.28-.28Z"/>
  <polygon class="st14" points="6.14 11.66 4.17 14.86 5.4 15.68 7.37 12.48 6.14 11.66"/>
  <rect class="st18" x="8.03" y="10.7" width="2.26" height="1.13"/>
  <path class="st10" d="M8.14,16.66c-.11-.03-.24,0-.3.11l-.53.89c-.11.19-.21.58.06.67.1.03.24,0,.31-.12l.52-.86c.12-.21.23-.6-.05-.69Z"/>
  <path class="st2" d="M16.68,14.41c.68-.11,1.27.06,1.93.34l-1.89-3.09-1.23.82,1.19,1.93Z"/>
  <rect class="st4" x="14.26" y="10.41" width="1.7" height="1.13" transform="translate(-.05 .06) rotate(-.24)"/>
  <rect class="st5" x="14.26" y="4.75" width="1.7" height="1.13"/>
  <path class="st7" d="M11.72,6.17c.15,0,.28.12.28.28v.57s1.42,0,1.42,0c.15,0,.28.13.28.28v1.7c0,.15-.12.28-.28.28h-1.42s0,2.93,0,2.93c.44-.15.87-.12,1.27.08l1.27.63.42-.21-.08-.15c-.11-.22-.03-.32.13-.45h-1.03c-.15,0-.28-.13-.28-.28v-1.7c0-.15.12-.28.28-.28h1.98v-3.4h-1.98c-.16,0-.27-.13-.28-.28v-1.7c0-.15.13-.28.28-.28h1.98s0-.57,0-.57h-4.53s0,2.54,0,2.54h.29Z"/>
  <path class="st8" d="M16.1,14.54l-.83-1.34-.61.31c-.06.01-.18.02-.24,0l-1.41-.71c-.27-.13-.58-.15-.86-.03l-1,.45c-.77.34-1.37.97-1.68,1.75-.02.06,0,.16.03.2.14.14.51.01.67-.09l1.4-.93c.11-.05.23-.04.35.04l2.66,1.5c.39-.53.9-.9,1.52-1.12Z"/>
  <path class="st6" d="M17.66,18.32c0-.3-.25-.55-.56-.55-.58,0-1.05-.43-1.12-.98-.07-.56.26-1.09.84-1.24v-.59c-1.3.15-2.27,1.26-2.26,2.55,0,1.27.97,2.37,2.26,2.51v-.59c-.51-.14-.85-.59-.84-1.09h.56c.02.38.3.59.61.56.3-.02.52-.28.52-.58Z"/>
  <path class="st15" d="M14,17.09c.07-.36.15-.63.28-.95l-2.55-1.44-1.21.81c-.45.3-1.17.45-1.5-.06-.15-.22-.17-.48-.07-.71.18-.46.44-.84.78-1.22-.55.03-1.03-.07-1.5-.3l-.5-.25-1.53,2.48c.25.49.57.9.99,1.27.24-.42.5-.72,1-.64.32.05.59.29.68.63.5-.21,1,.07,1.13.57.33-.14.67-.06.9.16.24.23.3.57.2.92.21.1.37.22.51.41l.26-.37,1.34.89c.18.12.4.18.62.19.23,0,.44-.19.41-.41l-1.82-1.04.28-.49,1.37.78-.09-.57-.99-.57.28-.48.73.41Z"/>
  <path class="st16" d="M17.38,14.96v.59c.51.14.83.57.85,1.09h-.57c-.01-.34-.27-.57-.58-.56-.31,0-.56.27-.55.58,0,.3.24.55.58.55.6.01,1.05.46,1.1,1.01.06.55-.28,1.06-.84,1.21v.59c1.33-.17,2.26-1.28,2.25-2.55,0-1.27-.96-2.36-2.25-2.51Z"/>
  <path class="st13" d="M9.27,17.22c-.11-.04-.24,0-.31.11l-.8,1.15c-.14.19-.23.61.04.69.1.03.23,0,.3-.1l.78-1.12c.16-.24.27-.65,0-.74Z"/>
  <path class="st3" d="M11.71,19.41l.89.58c.18.12.41.04.49-.12l-1.38-.91v.45Z"/>
  <path class="st9" d="M10.41,17.79c-.11-.04-.24,0-.31.11l-.8,1.15c-.14.19-.23.61.04.69.09.03.23,0,.3-.1l.78-1.12c.16-.24.27-.65,0-.74Z"/>
  <path class="st11" d="M12,1.02C5.94,1.02,1.02,5.94,1.02,12s4.92,10.98,10.98,10.98,10.98-4.92,10.98-10.98S18.06,1.02,12,1.02ZM5.51,3.78c.09-.14.26-.22.41-.12l2.08,1.3,1.33-1.33h-.73s0-.57,0-.57h1.42c.15,0,.28.13.28.28v1.42s-.56,0-.56,0v-.72s-1.48,1.47-1.48,1.47c-.09.1-.24.14-.36.06l-2.04-1.28-2.11,2.9-.46-.33,2.23-3.06ZM19.27,19.72c-1.28,1.25-3.35,1.18-4.54-.21-.23.4-.63.59-1.08.51-.22.53-.82.74-1.33.46-.29-.16-.55-.36-.85-.54-.23.33-.38.63-.84.67-.32.02-.58-.13-.78-.39-.24.1-.49.16-.76.04-.21-.09-.39-.31-.48-.55-.25.06-.54.1-.78-.08-.21-.15-.38-.38-.37-.71-.49,0-.86-.37-.85-.85,0-.3.11-.56.27-.82-.42-.36-.75-.75-1.03-1.2-.04.06-.08.11-.11.16-.11.18-.28.21-.45.1l-1.63-1.09c-.16-.11-.2-.26-.11-.45l-1.05-.71.31-.47,1.05.7,1.62-2.64-2.98-1.83.3-.48,2.97,1.82c.07-.08.16-.16.23-.17.11,0,.22.05.33.11v-4.64c0-.16.13-.29.29-.29h4.24s0-2.83,0-2.83c0-.17.12-.27.29-.28h5.09c.16,0,.29.12.29.29v7.75c.11-.05.21-.11.3-.11.09,0,.18.07.26.17l2.98-1.83.3.48-2.98,1.84,1.62,2.63,1.05-.69.32.46-1.06.71c.07.17.07.34-.11.45,1.32,1.22,1.34,3.28.07,4.51Z"/>
  <path class="st17" d="M10.83,18.92l-.51.73c-.1.14.02.33.14.37.16.06.28-.02.37-.17.16-.25.42-.56.25-.83-.04-.06-.16-.12-.26-.11Z"/>
</svg>