<?xml version="1.0" encoding="UTF-8"?>
<svg id="Capa_1" data-name="Capa 1" xmlns="http://www.w3.org/2000/svg" viewBox="0 0 24 24">
  <defs>
    <style>
      .cls-1 {
        fill: #fff;
      }
    </style>
  </defs>
  <path class="cls-1" d="M12,1.02C5.94,1.02,1.02,5.94,1.02,12s4.92,10.98,10.98,10.98,10.98-4.92,10.98-10.98S18.06,1.02,12,1.02ZM15.2,7.79c0,.14-.12.26-.26.26h-1.13c-.78,0-.92.3-.92.9v1.24h1.96c.07,0,.14.03.19.08s.08.12.08.19v2.12c0,.15-.12.26-.26.26h-1.96v5.34c0,.15-.12.26-.26.26h-2.19c-.15,0-.26-.12-.26-.26v-5.34h-1.68c-.15,0-.26-.12-.26-.26v-2.12c0-.15.12-.26.26-.26h1.68v-1.46c0-1.93,1.21-3.17,3.09-3.17h1.67c.14,0,.26.12.26.27v1.97Z"/>
</svg>