<?xml version="1.0" encoding="UTF-8"?>
<svg id="Capa_1" xmlns="http://www.w3.org/2000/svg" version="1.1" xmlns:xlink="http://www.w3.org/1999/xlink" viewBox="0 0 24 24">
  <!-- Generator: Adobe Illustrator 30.1.0, SVG Export Plug-In . SVG Version: 2.1.1 Build 136)  -->
  <defs>
    <style>
      .st0 {
        fill: url(#Degradado_sin_nombre_561);
      }

      .st1 {
        fill: url(#Degradado_sin_nombre_562);
      }

      .st2 {
        fill: url(#Degradado_sin_nombre_566);
      }

      .st3 {
        fill: url(#Degradado_sin_nombre_567);
      }

      .st4 {
        fill: url(#Degradado_sin_nombre_568);
      }

      .st5 {
        fill: url(#Degradado_sin_nombre_569);
      }

      .st6 {
        fill: url(#Degradado_sin_nombre_565);
      }

      .st7 {
        fill: url(#Degradado_sin_nombre_56);
      }

      .st8 {
        fill: url(#Degradado_sin_nombre_563);
      }

      .st9 {
        fill: url(#Degradado_sin_nombre_564);
      }
    </style>
    <linearGradient id="Degradado_sin_nombre_56" data-name="Degradado sin nombre 56" x1="12.09" y1="15.02" x2="12.09" y2="5.1" gradientUnits="userSpaceOnUse">
      <stop offset="0" stop-color="#295e9a"/>
      <stop offset="1" stop-color="#0783af"/>
    </linearGradient>
    <linearGradient id="Degradado_sin_nombre_561" data-name="Degradado sin nombre 56" x1="9.65" y1="11.21" x2="9.65" y2="6.51" xlink:href="#Degradado_sin_nombre_56"/>
    <linearGradient id="Degradado_sin_nombre_562" data-name="Degradado sin nombre 56" x1="9.09" y1="17.89" x2="9.09" y2="12.71" xlink:href="#Degradado_sin_nombre_56"/>
    <linearGradient id="Degradado_sin_nombre_563" data-name="Degradado sin nombre 56" x1="14.35" y1="10.59" x2="14.35" y2="9.01" xlink:href="#Degradado_sin_nombre_56"/>
    <linearGradient id="Degradado_sin_nombre_564" data-name="Degradado sin nombre 56" x1="14.35" y1="12.35" x2="14.35" y2="7.25" xlink:href="#Degradado_sin_nombre_56"/>
    <linearGradient id="Degradado_sin_nombre_565" data-name="Degradado sin nombre 56" x1="9.63" y1="9.57" x2="9.63" y2="8.14" xlink:href="#Degradado_sin_nombre_56"/>
    <linearGradient id="Degradado_sin_nombre_566" data-name="Degradado sin nombre 56" x1="5.15" y1="16.57" x2="5.15" y2="14.82" xlink:href="#Degradado_sin_nombre_56"/>
    <linearGradient id="Degradado_sin_nombre_567" data-name="Degradado sin nombre 56" x1="12" y1="22.98" x2="12" y2="1.02" xlink:href="#Degradado_sin_nombre_56"/>
    <linearGradient id="Degradado_sin_nombre_568" data-name="Degradado sin nombre 56" x1="16.31" y1="16.74" x2="16.31" y2="14.82" xlink:href="#Degradado_sin_nombre_56"/>
    <linearGradient id="Degradado_sin_nombre_569" data-name="Degradado sin nombre 56" x1="9.09" y1="18.9" x2="9.09" y2="18.38" xlink:href="#Degradado_sin_nombre_56"/>
  </defs>
  <path class="st7" d="M6.97,14.06v-.46c.02-.24.28-.43.51-.44h.52s.01-.45.01-.45c0-.27.26-.5.53-.5h1.07c.28,0,.53.22.54.5v.44s.53,0,.53,0c.23,0,.49.19.5.44l.02.47c.45.26.84.56,1.19.95h1.22l.23-.55c.05-.08.12-.13.23-.15h4.97s0-9.23,0-9.23H5.13s0,9.23,0,9.23h1.43s.42-.26.42-.26ZM6.98,8.14l.39-.09c.06-.01.1-.18.06-.22l-.21-.31c-.06-.09-.04-.23.03-.3l.7-.71c.08-.08.22-.08.31-.02l.34.21s.18-.05.19-.1l.07-.35c.03-.13.12-.22.25-.22h.97c.12-.02.23.07.26.18l.08.37c.01.07.17.13.22.09l.32-.21c.08-.05.23-.04.3.03l.73.71c.06.06.05.23.01.29l-.19.28c-.04.06-.04.18.04.21l.69-.7c.09-.09.22-.09.32-.02l.35.22c.06.04.23-.04.25-.11l.08-.4c.02-.11.12-.21.24-.21h1.07c.08-.01.2.07.22.16l.11.48.21.1.37-.25c.1-.07.24-.06.33.03l.76.75c.08.08.05.23,0,.32l-.22.35s.04.21.09.22c.28.09.62.05.62.32l.02,1.04c0,.12-.07.24-.19.27l-.44.1c-.06.01-.13.18-.1.23l.23.35c.07.11.07.24-.02.33l-.73.75c-.09.09-.22.1-.33.03l-.37-.23c-.05-.03-.21.05-.23.1-.07.22-.04.61-.31.61h-1.07c-.11.02-.22-.07-.24-.18l-.1-.43c-.01-.06-.18-.13-.23-.1l-.34.23c-.09.06-.24.08-.32,0l-.77-.75c-.08-.08-.09-.22-.04-.31l.24-.4c.04-.06-.08-.24-.16-.24l-.55.56c-.08.08-.22.11-.31.05l-.32-.21c-.05-.03-.22.01-.23.08l-.07.36c-.02.11-.12.22-.24.22h-.98c-.12.01-.23-.08-.25-.19l-.08-.37c-.01-.06-.17-.12-.22-.08l-.31.21c-.09.06-.23.04-.31-.03l-.68-.66c-.09-.08-.13-.22-.06-.33l.22-.35c.03-.05-.05-.19-.1-.2l-.38-.08c-.11-.02-.19-.14-.19-.25v-.97c-.01-.12.07-.22.19-.25Z"/>
  <path class="st0" d="M7.66,9.23c.07.01.15.11.18.18l.15.37c.03.06.03.18,0,.24l-.2.32.41.4.25-.18c.12-.08.24-.07.37-.01l.41.18c.08.14.1.3.14.49h.58c.04-.19.04-.34.12-.47.06-.09.23-.12.34-.17.09-.04.26-.13.34-.08l.37.22.21-.21-.02-1.18c0-.13.08-.24.19-.27l.43-.1c.08-.02.12-.21.08-.27-.14-.24-.46-.11-.53-.27l-.16-.37c-.04-.08-.08-.23-.04-.31l.21-.34-.4-.4-.33.21c-.06.04-.19.02-.26-.01l-.34-.14c-.06-.02-.15-.1-.16-.16l-.09-.39h-.56s-.08.38-.08.38c-.01.07-.1.15-.17.18l-.35.14c-.07.03-.18.04-.24,0l-.34-.21-.39.4.21.32c.05.08.01.22-.03.3l-.18.41c-.14.08-.31.1-.49.14v.58s.38.07.38.07ZM9.44,7.66c.68-.11,1.28.36,1.39,1,.11.67-.34,1.29-1,1.4-.65.11-1.27-.33-1.39-.98-.12-.65.31-1.3,1-1.41Z"/>
  <path class="st1" d="M11.19,15.91c0,.14-.14.23-.26.23-.11,0-.24-.1-.24-.24v-2.23s-.54,0-.54,0v2.85c0,.15-.13.25-.25.25-.12,0-.25-.1-.25-.25v-3.81s-1.15,0-1.15,0v3.78c0,.17-.1.28-.25.28-.12,0-.25-.1-.25-.25v-2.86s-.54,0-.54,0v2.21c0,.15-.11.26-.24.27-.15,0-.25-.11-.25-.26v-1.22c-1.12.72-1.79,1.93-1.8,3.24h7.83c-.03-1.35-.7-2.53-1.8-3.23v1.26Z"/>
  <path class="st8" d="M14.49,10.57c.42-.07.71-.48.64-.9-.07-.41-.46-.72-.91-.65-.46.08-.73.52-.64.94.09.41.49.68.91.61Z"/>
  <path class="st9" d="M11.81,10.13l.42.08c.07.01.14.11.17.18l.16.4c.03.06.02.19-.02.24l-.22.34.46.45.34-.23c.07-.05.2-.03.27,0l.37.15c.07.03.15.11.17.18l.09.41h.65c.04-.23.05-.38.13-.54l.43-.18c.09-.04.22-.09.31-.04l.38.24.45-.46-.21-.32c-.05-.08-.06-.19-.02-.28l.16-.4c.03-.07.11-.15.18-.17l.41-.09v-.64s-.42-.08-.42-.08c-.07-.01-.15-.11-.18-.18l-.16-.39c-.02-.05-.03-.18,0-.23l.23-.37-.46-.45-.29.2c-.2.14-.32.02-.69-.12-.07-.03-.16-.11-.17-.18l-.09-.41h-.64s-.08.42-.08.42c-.01.07-.1.15-.17.18l-.4.16c-.06.02-.19.03-.24,0l-.36-.23-.45.45.23.35c.04.06.03.18,0,.24l-.17.42c-.02.05-.11.14-.16.15l-.42.09v.64ZM14.25,8.52c.74-.06,1.33.5,1.38,1.19.05.71-.49,1.32-1.2,1.37-.69.05-1.31-.47-1.36-1.17-.06-.7.45-1.34,1.18-1.39Z"/>
  <path class="st6" d="M9.79,9.56c.38-.09.63-.47.54-.86-.09-.36-.45-.62-.85-.53-.41.09-.63.51-.53.88.1.37.48.6.85.51Z"/>
  <path class="st2" d="M5.94,14.83h-1.59s0,1.04,0,1.04c.06.3.24.57.54.7.22-.69.57-1.21,1.05-1.74Z"/>
  <path class="st3" d="M12,1.02C5.94,1.02,1.02,5.94,1.02,12s4.92,10.98,10.98,10.98,10.98-4.92,10.98-10.98S18.06,1.02,12,1.02ZM18.67,17.24h-5.22s.05.64.05.64c.18.02.37.08.48.2.15.16.16.34.17.56.03.42-.21.76-.64.76H4.68c-.22,0-.38-.07-.5-.2-.22-.24-.22-.86-.01-1.1.11-.13.3-.21.49-.22l.09-.8c-.46-.23-.85-.64-.88-1.17-.03-.45-.01-.89-.01-1.34,0-.13.11-.23.23-.24l.54-.02V4.84c0-.14.12-.25.26-.25h14.4c.14,0,.26.1.26.25v9.48s.51,0,.51,0c.14,0,.27.09.27.24v1.2c0,.87-.82,1.46-1.65,1.46Z"/>
  <path class="st4" d="M14.25,14.82l-.24.55c-.04.08-.14.15-.24.15h-.98c.24.41.42.77.55,1.22h5.42c.47,0,1.07-.4,1.06-.96v-.95s-5.58,0-5.58,0Z"/>
  <path class="st5" d="M4.56,18.9h9.06c.06-.21.06-.35-.01-.51H4.57c-.07.17-.06.33,0,.51Z"/>
</svg>