<?xml version="1.0" encoding="UTF-8"?>
<svg id="Capa_1" data-name="Capa 1" xmlns="http://www.w3.org/2000/svg" viewBox="0 0 24 24">
  <defs>
    <style>
      .cls-1 {
        fill: #fff;
      }
    </style>
  </defs>
  <path class="cls-1" d="M14.31,6.99h-4.62c-1.49,0-2.7,1.21-2.7,2.7v4.62c0,1.49,1.21,2.7,2.7,2.7h4.62c1.49,0,2.7-1.21,2.7-2.7v-4.62c0-1.49-1.21-2.7-2.7-2.7ZM12,15.08c-1.7,0-3.08-1.38-3.08-3.08s1.38-3.08,3.08-3.08,3.08,1.38,3.08,3.08-1.38,3.08-3.08,3.08ZM15.31,9.1c-.23,0-.41-.18-.41-.41s.18-.41.41-.41.41.18.41.41-.18.41-.41.41Z"/>
  <path class="cls-1" d="M12,10.07c-1.06,0-1.93.86-1.93,1.93s.86,1.93,1.93,1.93,1.93-.86,1.93-1.93-.86-1.93-1.93-1.93Z"/>
  <path class="cls-1" d="M12,1.02C5.94,1.02,1.02,5.94,1.02,12s4.92,10.98,10.98,10.98,10.98-4.92,10.98-10.98S18.06,1.02,12,1.02ZM18.16,14.31c0,2.13-1.72,3.85-3.85,3.85h-4.62c-2.13,0-3.85-1.72-3.85-3.85v-4.62c0-2.13,1.72-3.85,3.85-3.85h4.62c2.13,0,3.85,1.72,3.85,3.85v4.62Z"/>
</svg>