<?xml version="1.0" encoding="UTF-8"?>
<svg id="Capa_1" data-name="Capa 1" xmlns="http://www.w3.org/2000/svg" viewBox="0 0 24 24">
  <defs>
    <style>
      .cls-1 {
        fill: #fff;
      }
    </style>
  </defs>
  <path class="cls-1" d="M12,1.02C5.94,1.02,1.02,5.94,1.02,12s4.92,10.98,10.98,10.98,10.98-4.92,10.98-10.98S18.06,1.02,12,1.02ZM9.33,16.61h-2.33v-6.99h2.33v6.99ZM9.12,8.32c-.24.23-.56.35-.96.35h-.01c-.39,0-.7-.12-.93-.35-.24-.23-.35-.52-.35-.86s.12-.64.36-.86.56-.34.95-.34.7.11.94.34c.23.23.35.52.36.86,0,.34-.11.63-.36.86ZM17.7,16.61h-2.32v-3.74c0-.49-.1-.88-.29-1.16-.19-.28-.49-.42-.89-.42-.3,0-.54.08-.74.24-.2.16-.35.36-.45.6-.05.14-.08.33-.08.57v3.9h-2.32c0-1.88.01-3.4.01-4.56s0-1.86,0-2.09v-.34s2.31,0,2.31,0v.99c.09-.14.18-.27.28-.37.1-.11.23-.23.4-.37.17-.13.37-.23.61-.31.24-.07.51-.11.81-.11.8,0,1.45.27,1.94.8.49.53.73,1.31.73,2.34v4Z"/>
</svg>