<?xml version="1.0" encoding="UTF-8"?>
<svg id="Capa_1" xmlns="http://www.w3.org/2000/svg" version="1.1" xmlns:xlink="http://www.w3.org/1999/xlink" viewBox="0 0 24 24">
  <!-- Generator: Adobe Illustrator 29.8.3, SVG Export Plug-In . SVG Version: 2.1.1 Build 3)  -->
  <defs>
    <style>
      .st0, .st1 {
        fill: #fff;
      }

      .st1 {
        fill-rule: evenodd;
      }

      .st2 {
        fill: url(#Degradado_sin_nombre_8);
      }
    </style>
    <linearGradient id="Degradado_sin_nombre_8" data-name="Degradado sin nombre 8" x1="19.76" y1="19.76" x2="4.24" y2="4.24" gradientUnits="userSpaceOnUse">
      <stop offset="0" stop-color="#6cb75a"/>
      <stop offset="1" stop-color="#2cab5d"/>
    </linearGradient>
  </defs>
  <circle class="st2" cx="12" cy="12" r="10.98"/>
  <g>
    <path class="st0" d="M5.64,17.87l.91-3.38c-.51-.93-.78-1.96-.78-3.01,0-3.44,2.8-6.24,6.24-6.24s6.24,2.8,6.24,6.24-2.8,6.24-6.24,6.24c-1.03,0-2.05-.26-2.97-.76l-3.4.91ZM9.2,15.69l.21.13c.79.47,1.68.72,2.58.72,2.79,0,5.06-2.27,5.06-5.06s-2.27-5.06-5.06-5.06-5.06,2.27-5.06,5.06c0,.92.26,1.83.74,2.62l.13.22-.51,1.89,1.9-.51Z"/>
    <path class="st1" d="M14.32,12.34c-.26-.15-.59-.33-.89-.2-.23.09-.38.46-.53.64-.08.1-.17.11-.29.06-.87-.35-1.54-.93-2.02-1.73-.08-.12-.07-.22.03-.34.15-.17.33-.37.37-.6.04-.23-.07-.5-.16-.71-.12-.26-.26-.64-.52-.78-.24-.14-.56-.06-.77.12-.37.3-.55.78-.55,1.25,0,.13.02.27.05.4.07.31.22.6.38.87.12.21.25.41.4.6.47.63,1.05,1.18,1.72,1.59.34.21.7.39,1.07.51.42.14.79.28,1.25.2.47-.09.94-.38,1.13-.84.06-.14.08-.29.05-.43-.06-.3-.46-.47-.7-.61Z"/>
  </g>
</svg>