<?xml version="1.0" encoding="UTF-8"?>
<svg id="Capa_1" data-name="Capa 1" xmlns="http://www.w3.org/2000/svg" viewBox="0 0 24 24">
  <defs>
    <style>
      .cls-1 {
        fill: #2f56a2;
      }
    </style>
  </defs>
  <path class="cls-1" d="M17.66,21.09c.09.11.25.14.36.23.12.09.22.23.32.35.12.13.23.27.35.4l.08-.02s.04,0,.06,0l.32.04h0s-.01-.03-.02-.04l-.07-.25c-.01-.05,0-.1.03-.15l.1-.13v-.13s.02-.06.04-.09l-.14-.02s-.08-.03-.1-.06l-.13-.16s-.03-.05-.04-.07l-.05-.23-.14-.25-.13-.21s-.03-.07-.02-.11v-.1s-.07-.13-.07-.13c-.02-.03-.03-.06-.02-.09v-.26s.01-.02.02-.03l.04-.19-.13-.28-.23-.17-.13-.06h-.01s-.02.03-.03.04l-.17.12s-.1.04-.15.02l-.18-.07s-.09-.06-.1-.11l-.06-.19s0,0,0-.01l-.05-.23-.13-.18-.2-.22-.26-.24s-.03-.03-.04-.05l-.13-.28s-.02-.05-.02-.07v-1s-.01-.1-.01-.1c0-.02,0-.03,0-.05,0-.01,0-.02,0-.03v-.1s-.05-.11-.05-.11l-.13-.04c-.07-.02-.11-.09-.11-.16v-.23l-.02-.06-.33-.07s-.01,0-.02,0l-.27-.09c-.06-.02-.1-.07-.11-.13l-.12-.65s0-.01,0-.02l-.02-.2-.08-.06s-.05-.05-.06-.09l-.09-.31-.33-.08s0,0-.01,0l-.14-.05-.03.13s-.01.04-.02.05l-.18.26s-.02.03-.04.04l-.69.52s0,0-.01,0l-.34.22-.02.11h-.12s-.09.22-.15.13l-.08-.12h-.03s-.11.45-.11.45l.07.33.16.12s-.03.13-.01.25l.18.04.27.13.16.06.15-.19s.21.03.15.16l.06.12.13.1-.13.06.13.07.22.24h.09s0-.22,0-.22l.21.04.16.27.36.25.03.31-.09.28.21.34.04-.1-.1-.22h.18l.24.27.24.06.15.24-.04.13h-.13s-.25-.16-.25-.16l-.09.04.49.33.36.34.04-.07s-.22-.27-.18-.36l.24.06.4.54s.03.28-.06.25l-.19-.24h-.13s.24.31.25.37c.01.06.43.22.43.22.17.25.34.49.47.76.03.07.04.19.09.25Z"/>
  <path class="cls-1" d="M12.25,20.02l-.31-.15v-.13s0-.11,0-.11l-.06-.07-.1-.08v-.12s-.02-.13-.02-.13v-.1s-.26,0-.26,0v-.11s-.05-.17-.05-.17c-.09-.09-.24-.28-.37-.3-.11-.01-.24.08-.35.1-.13.02-.25.01-.38-.02,0,0-.12-.11-.12-.11,0,0-.01-.09-.01-.12s-.02-.16-.02-.18-.06-.16-.06-.16l.03-.16.11-.08.04-.18s-.01-.13-.01-.15-.03-.13-.03-.13l-.13-.1-.12-.11v-.13s-.02-.16-.02-.16l-.11-.08-.03-.23v-.18l-.02-.14h-.13s-.08-.1-.08-.1l-.1-.1-.22-.26-.04-.43v-.2s-.04-.1-.04-.1c0,0-.01-.1,0-.13,0-.02.03-.18.03-.18l-.05-.13v-.15s.01-.19.01-.19l-.16-.03-.03-.12v-.13s-.19-.26-.19-.26c0,0-.14-.19-.19-.19l-.05.15.04.15.1.08.07.13.05.21h-.09l-.13-.04-.2-.19v-.16s.02-.25.02-.25l-.07-.04-.11-.12v-.17s.08-.08.08-.08l-.02-.13-.19-.05-.12-.07c.03-.12-.09-.37-.12-.49-.04-.13-.1-.2-.18-.29-.02-.03.02-.06-.03-.1-.03-.03-.09-.04-.12-.06-.07-.03-.14-.06-.21-.09l-.04-.14-.15-.08-.07-.13v-.07s-1.37-.11-1.37-.11l-.53-.06-.42.04v.18h.11s.21.09.21.09l.09.16-.15.03h-.12s-.12.06-.12.06l-.17-.1-.13-.21-.02-.17v-.07s-.13.07-.13.07l-.08.1h-.24l-.27-.04-.21-.09-.16-.05-.19-.07.06.16.11.2.15.03.15.11.06.12.24.2.15.16.02.25.21.28h.26s.13.07.13.07l.16.17.12.11.28.09v.19s.17.09.17.09l.14.13.09-.09h.16l.11.06s.09-.01.15-.07l.09.04.07-.03s.03-.16.03-.18.1-.07.1-.07h.1s.01.12.01.12l-.03.16-.07.16.04.21.25.28.28.25.37.25.25.11.05.14.28.37v.48s.02.22.02.22h.05s.04-.02.04-.02v-.31s0-.12,0-.12l.12.13v.34s-.08.28-.08.28l-.1.42-.14.22-.06.23.07.03.1-.22s.05-.07.13-.04l-.03.16-.11.19-.04.11.05.05.08-.08h.09s.09.23.09.23l.04.19.12.07.23.02.16.22s.23.27.25.26c.02,0,.28.19.28.19l.22.19.24.24.3.31.18.28.21.16.28.11.26.27.1.28.04.32.11.34.14.19h.15s.16-.17.16-.17l.19-.09.21-.08.15-.13.09-.22.04-.22-.05-.18-.1-.16Z"/>
  <path class="cls-1" d="M3.47,8.22l.27.17.17.41.25.09.04.16.17.22.21.27.07.21.2.06.04.23.08.18-.07.33-.04.31-.15.14.45-.04s.02,0,.03,0l.54.06,1.37.1v-.11s0-.07,0-.07l-.1-.12v-.11l.04-.09.04-.1v-.1h-.2l-.16-.1-.05-.16-.06-.21v-.14s-.04-.1-.04-.1h-.23s-.04-.1-.04-.1l-.1-.16h-.1s-.05.15-.12.2l-.05-.17v-.13s0-.16,0-.16l-.05-.15.03-.14-.03-.19-.2-.18-.29-.44-.27-.3-.11-.11-.24.02v-.14s-.01-.22-.01-.22l-.12-.13-.14-.09-.13-.08.05-.2s.04-.45.05-.48c0-.03-.05-.24-.05-.24l-.05-.25.02-.15v-.21l-.09-.13-.07-.25-.05-.28.03-.23.1-.27.05-.16v-.11s-.12-.18-.12-.18l-.3-.26s-.06-.08-.06-.13l.03-.54s.02-.09.05-.11l.43-.38s.04-.03.06-.04l.19-.05.16-.06.05-.1v-.16s-1.39.01-1.81,0c-.42-.01-2.05-.09-2.05-.09v.19s.1.26.1.26l.14.21-.03.29.27.33.05.13h-.1s-.11.15-.11.15l.04.28.19.21.32.48.03.58.32.4.05.61.16.22.07.43.02.31.12.51.13.16.25.11.22.12.21.28Z"/>
  <path class="cls-1" d="M4.74,2.65s0,0-.01,0l-.16.05-.35.31-.02.39.26.22s.02.02.03.04l.04.06.1.09.62.58s.16.09.27.09.16-.07.16-.07l.15-.11h.16s.18.18.18.18v.14l.02.16.27.07.25.14.34.12.12.18-.04.26-.11.09s.01.44.01.46.04.33.04.33l.18.17v.15s.13.28.13.28l.1.23v.25l.05.18.11.16v.14l.05.15.31.12s0,.18,0,.2c0,.02-.08.15-.08.15l.02.16.2.04.16.14-.04.19.04.19.04.25.15.13.16.19.06.25.25.37.45.23.19.46.3.31.22.24.12.04.02-.1-.07-.05-.07-.16v-.11s.16-.03.16-.03l.13.04.05.19.16.12.14.1.09-.03.13.18-.02.02-.15.12-.12.15-.03.27.27.24v.22s.13.1.13.1l.34.12.42.13.04.13-.09.24.3.42.6-.03.19.36.03.27.42-.27.66-.5.15-.21v-.04s-.08-.03-.11-.07l-.12-.18s-.02-.04-.02-.06l-.05-.19s0-.07,0-.1l.08-.17v-.33l-.1-.05s-.08-.06-.09-.11l-.04-.16-.13-.15s-.04-.07-.04-.12v-.12s-.13-.1-.13-.1c-.02-.02-.04-.04-.05-.06l-.06-.12s0-.01,0-.02l-.06-.17s0-.02,0-.03l-.02-.15c-.01-.07.02-.13.08-.17l.26-.16s.07-.03.1-.02l.29.03.17-.02v-.06s-.08-.24-.08-.24c0-.02,0-.05,0-.07l.02-.19-.05-.3s0-.02,0-.03v-1c.01-.07.05-.12.11-.15l.09-.04.02-.46.07-.65v-.4l-.1-.28-.14-.37s-.01-.04-.01-.05l-.02-.64-.03-.23-.08-.08s-.05-.09-.05-.14l.03-.23-3.24-.11-.22-.15s-2.7-1.21-3.09-1.35c-.32-.11-1.88-.88-2.45-1.16l-.15.05Z"/>
  <polygon class="cls-1" points="10.54 12.86 10.64 12.83 10.78 12.92 10.82 13.05 10.66 13.12 10.54 12.86"/>
  <polygon class="cls-1" points="7.82 9.12 7.76 9.46 7.6 9.55 7.65 9.66 7.78 9.76 7.94 9.9 8.03 9.88 8.1 9.7 8.18 9.61 8.15 9.43 8.07 9.32 8.06 9.13 7.94 9.04 7.82 9.12"/>
  <polygon class="cls-1" points="7.53 9.82 7.46 9.88 7.5 10 7.64 10.06 7.73 10.02 7.61 9.85 7.53 9.82"/>
  <polygon class="cls-1" points="7.15 9.98 7.1 10.06 7.13 10.18 7.23 10.25 7.34 10.15 7.25 10.03 7.15 9.98"/>
  <path class="cls-1" d="M5.97,8.15l-.02.18.04.2.19.27.23.22.16.3.16.03s.07-.06.05-.05c-.02,0-.11-.15-.11-.15l.03-.17v-.18l-.12-.06-.2-.02-.09-.07.04-.23-.1-.15-.15-.16-.12.05Z"/>
  <polygon class="cls-1" points="14.49 17.43 14.59 17.43 14.65 17.49 14.72 17.61 14.8 17.72 14.77 17.83 14.67 17.75 14.59 17.6 14.5 17.53 14.49 17.43"/>
  <polygon class="cls-1" points="14.79 17.44 14.79 17.55 14.86 17.63 14.92 17.71 14.97 17.71 14.96 17.58 14.88 17.48 14.79 17.44"/>
  <polygon class="cls-1" points="8.13 12.62 8.16 12.75 8.21 12.84 8.28 12.84 8.35 12.8 8.34 12.7 8.24 12.64 8.16 12.61 8.13 12.62"/>
  <polygon class="cls-1" points="9.73 15.06 9.53 15.25 9.49 15.37 9.52 15.48 9.58 15.51 9.67 15.43 9.77 15.38 9.78 15.27 9.73 15.06"/>
  <path class="cls-1" d="M9.92,15.78l-.09.03v.09s.1.04.1.04c.04-.04,0-.17,0-.17Z"/>
  <polygon class="cls-1" points="10.23 15.78 10.17 15.93 10.22 16.02 10.35 16.07 10.4 15.97 10.35 15.88 10.23 15.78"/>
  <polygon class="cls-1" points="9.74 15.89 9.64 15.98 9.66 16.06 9.75 16.1 9.77 16.03 9.74 15.89"/>
  <polygon class="cls-1" points="10.31 17 10.3 17.2 10.34 17.31 10.46 17.45 10.53 17.53 10.59 17.5 10.58 17.34 10.63 17.25 10.59 17.15 10.48 17.07 10.4 17.04 10.31 17"/>
  <polygon class="cls-1" points="10.83 17.79 10.74 17.85 10.75 17.93 10.79 18.01 10.91 18 10.94 17.91 10.83 17.79"/>
  <path class="cls-1" d="M10.96,18.14l-.12.03-.03.08.04.07.06.08h.06s.02-.08.02-.08c.04-.04.05-.18.05-.18h-.07Z"/>
  <polygon class="cls-1" points="11.63 18.5 11.6 18.61 11.69 18.72 11.71 18.88 11.76 18.93 11.91 18.95 11.93 18.89 11.89 18.81 11.8 18.74 11.76 18.61 11.69 18.55 11.63 18.5"/>
  <polygon class="cls-1" points="8.21 18.04 8.12 18.08 8.11 18.17 8.21 18.28 8.33 18.45 8.44 18.47 8.78 18.42 8.78 18.33 8.46 18.31 8.37 18.21 8.27 18.12 8.21 18.04"/>
  <polygon class="cls-1" points="7.8 16.53 7.7 16.64 7.52 17 7.43 17.31 7.53 17.43 7.64 17.52 7.66 17.68 7.69 17.79 7.84 17.9 7.89 17.89 7.87 17.78 7.77 17.7 7.77 17.54 7.76 17.43 7.61 17.29 7.62 17.11 7.73 16.93 7.77 16.73 7.86 16.62 7.84 16.54 7.8 16.53"/>
  <polygon class="cls-1" points="7.94 16.1 7.85 16.17 7.83 16.26 7.85 16.42 7.9 16.43 7.94 16.38 7.96 16.28 8.01 16.22 8 16.14 7.94 16.1"/>
  <polygon class="cls-1" points="3.11 11.09 3.07 11.01 2.97 11 2.85 10.99 2.84 11.05 2.91 11.12 3 11.13 3.11 11.09"/>
  <polygon class="cls-1" points="2.75 10.61 2.77 10.67 2.89 10.71 2.96 10.79 3.07 10.8 3.11 10.65 3.21 10.54 3.21 10.38 3.18 10.07 3.09 10.05 3.01 10.19 2.95 10.32 2.94 10.43 2.88 10.48 2.84 10.56 2.75 10.61"/>
</svg>