<?xml version="1.0" encoding="UTF-8"?>
<svg id="Capa_1" data-name="Capa 1" xmlns="http://www.w3.org/2000/svg" viewBox="0 0 24 24">
  <defs>
    <style>
      .cls-1 {
        fill: #fff;
      }

      .cls-2 {
        fill: #2f56a2;
      }
    </style>
  </defs>
  <rect class="cls-2" x="1" y="1" width="21.99" height="21.99" rx="11" ry="11"/>
  <g>
    <path class="cls-1" d="M14.53,12.17c0,.15-.26.53-.26.63,0,.12.23.38.19.53-.01.04-.15.2-.18.24-.07.08-.4.4-.48.42-.12.03-.39-.17-.53-.19-.2.1-.4.2-.62.25-.06.09-.14.47-.23.51-.12.05-.57.05-.72.04-.05,0-.18-.02-.22-.03-.09-.03-.16-.38-.22-.47-.05-.07-.27-.13-.37-.17-.09-.04-.18-.1-.27-.13-.13.03-.4.22-.53.19-.11-.03-.56-.49-.63-.6-.02-.04-.06-.07-.06-.12.02-.12.21-.37.19-.49,0-.05-.07-.14-.1-.2-.06-.14-.11-.28-.15-.42l-.5-.21s-.03-.08-.03-.12c-.01-.09-.03-.26-.03-.35s.02-.39.05-.47c0-.03,0-.03.03-.06.08-.06.43-.13.48-.2l.25-.62c0-.11-.22-.42-.19-.5.01-.04.21-.28.26-.32.07-.08.39-.38.48-.36.12.02.37.21.49.19.06,0,.21-.11.29-.14.1-.04.21-.06.31-.11.06-.09.14-.46.22-.5.04-.02.33-.05.4-.05.11,0,.5.01.57.06.11.07.14.4.24.5.16,0,.49.24.6.25.12,0,.41-.23.52-.19.04.01.32.26.37.3s.27.3.29.34c.06.13-.16.42-.18.56l.25.6c.1.1.48.14.52.26s.05.84,0,.94l-.5.21ZM11.88,9.96c-2.02.07-1.87,3.19.19,3.03,1.91-.15,1.78-3.1-.19-3.03Z"/>
    <path class="cls-1" d="M17.11,9.74c.1.32.19.66.23.99.29,2.13-.8,4.6-2.77,5.57-.22.11-.41.14-.57-.09-.25-.39.27-.59.51-.78,1.59-1.26,2.22-3.22,1.67-5.19-.42.43-1.02.19-.97-.43.03-.35.14-.89.22-1.24.1-.42.35-.71.81-.51.44.19.89.52,1.33.73.41.4.09,1.02-.46.95Z"/>
    <path class="cls-1" d="M8.39,8.42c.6.08.67.79.11,1.04-.26.12-1.06.43-1.32.48-.34.06-.61-.08-.69-.43.02-.47-.1-1.05-.06-1.5.04-.48.52-.68.9-.4l.17.23c1.58-1.79,4.17-2.35,6.37-1.38.31.14,1.08.45.75.89-.24.32-.57.03-.83-.07-1.73-.71-3.59-.45-5.02.74-.09.07-.3.25-.36.33-.02.02-.04.03-.03.07Z"/>
    <path class="cls-1" d="M10.72,16.08c-.23-.5.27-.97.76-.7.21.12.92.73,1.11.92.23.23.31.51.09.78-.1.12-1.17.79-1.35.87-.33.15-.71,0-.79-.36-.04-.21.04-.3.12-.48-2.17-.42-3.91-2.18-4.32-4.36-.06-.34-.14-.92-.09-1.25s.55-.42.71-.1c.07.15.06.56.09.76.28,1.89,1.81,3.51,3.67,3.93Z"/>
  </g>
</svg>