<?xml version="1.0" encoding="UTF-8"?>
<svg id="Capa_1" data-name="Capa 1" xmlns="http://www.w3.org/2000/svg" xmlns:xlink="http://www.w3.org/1999/xlink" viewBox="0 0 24 24">
  <defs>
    <style>
      .cls-1 {
        fill: #fff;
      }

      .cls-2 {
        fill: #2f56a2;
      }

      .cls-3 {
        fill: none;
        stroke: url(#Degradado_sin_nombre_190);
        stroke-miterlimit: 10;
        stroke-width: .5px;
      }

      .cls-4 {
        fill: url(#Degradado_sin_nombre_68);
        fill-rule: evenodd;
      }
    </style>
    <linearGradient id="Degradado_sin_nombre_190" data-name="Degradado sin nombre 190" x1="-4498.99" y1="3435.4" x2="-4485.49" y2="3435.4" gradientTransform="translate(-3423.4 -4480.24) rotate(-90)" gradientUnits="userSpaceOnUse">
      <stop offset="0" stop-color="#0052a0"/>
      <stop offset="1" stop-color="#64b2d5"/>
    </linearGradient>
    <linearGradient id="Degradado_sin_nombre_68" data-name="Degradado sin nombre 68" x1="352.78" y1="1255.74" x2="357.9" y2="1255.74" gradientTransform="translate(-343.34 -1243.74)" gradientUnits="userSpaceOnUse">
      <stop offset="0" stop-color="#0052a0"/>
      <stop offset="1" stop-color="#64b2d5"/>
    </linearGradient>
  </defs>
  <path class="cls-2" d="M2.66,14.33c.38,1.52,1.13,2.92,2.19,4.1,1.83,2.03,4.37,3.15,7.14,3.15,4.57,0,8.3-3.03,9.34-7.25H2.66Z"/>
  <g>
    <circle class="cls-1" cx="12" cy="12" r="7.66"/>
    <path class="cls-3" d="M11.97,18.5c-2.62,0-4.97-1.58-5.98-4.02-.66-1.6-.66-3.37,0-4.97,1.01-2.44,3.36-4.01,5.97-4.01,3.66,0,6.53,2.86,6.53,6.5,0,1.88-.75,3.59-2.11,4.82-1.21,1.09-2.77,1.69-4.41,1.69h0Z"/>
    <path class="cls-4" d="M14.43,14.59c-.07,0-.13.06-.13.13v.49h-4.31c-.13,0-.23-.1-.23-.23v-.28c0-.13.1-.23.23-.23h4.57s0-6,0-6h-3.12s0,4.73,0,4.73l-.57-.52-.57.52v-4.73s-.25,0-.25,0c-.34,0-.61.24-.61.53v6c0,.29.28.53.61.53h4.51s0-.8,0-.8c0-.07-.06-.13-.13-.13Z"/>
  </g>
</svg>